<?xml version="1.0" encoding="utf-8"?>
<!-- Generator: Adobe Illustrator 24.0.1, SVG Export Plug-In . SVG Version: 6.00 Build 0)  -->
<svg version="1.1" id="_ÎÓÈ_1" xmlns="http://www.w3.org/2000/svg" xmlns:xlink="http://www.w3.org/1999/xlink" x="0px" y="0px"
	 viewBox="0 0 107.77 108.72" style="enable-background:new 0 0 107.77 108.72;" xml:space="preserve">
<style type="text/css">
	.st0{fill:#F7741C;}
	.st1{opacity:0.71;}
</style>
<title>icons_unbranded_RGB</title>
<path class="st0" d="M85.97,76.43h-0.23c-4.19-0.11-8.44-3.19-9.24-8.92H65.19c-1.1,0-2-0.9-2-2V52.25c0-1.1,0.9-2,2-2
	c4.6,0,6.69-2.16,6.69-4.16s-2.09-4.17-6.69-4.17c-1.1,0-2-0.9-2-2V24.97c0-1.1,0.9-2,2-2h10.07c0.8-6.25,5.37-9.51,9.89-9.51
	s9.08,3.26,9.89,9.51h10.69c1.1,0,2,0.9,2,2v40.54c0,1.1-0.9,2-2,2H95.44C94.63,73.41,90.19,76.43,85.97,76.43z M67.19,63.51h11.15
	c1.1,0,2,0.9,2,2c0,4.68,2.75,6.85,5.48,6.92c2.73,0.07,5.5-1.87,5.73-6.35c0-0.18,0-0.37,0-0.57c0-1.1,0.9-2,2-2h10.17V26.97H93.19
	c-1.1,0-2-0.9-2-2c0-5.19-3-7.51-6-7.51s-6,2.32-6,7.51c0,1.1-0.9,2-2,2h-10v11.07c5.71,0.7,8.69,4.39,8.69,8s-3,7.34-8.69,8V63.51z
	"/>
<path class="st0" d="M95.9,108.72H65.19c-1.1,0-2-0.9-2-2V97.8c-6.28-0.74-9.55-5-9.55-9.24s3.27-8.49,9.55-9.23V66.18
	c0-1.1,0.9-2,2-2h12.89c1.1,0,2,0.9,2,2s-0.9,2-2,2H67.19v13c0,1.1-0.9,2-2,2c-5.19,0-7.55,2.78-7.55,5.35s2.36,5.36,7.55,5.36
	c1.1,0,2,0.9,2,2v8.8h28.67c3.68,0.02,6.88-2.53,7.68-6.12c0.13-0.57,0.19-1.15,0.19-1.74V68.18h-10.7c-1.1,0-2-0.9-2-2s0.9-2,2-2
	h12.74c1.1,0,2,0.9,2,2v30.68c0,0.88-0.1,1.77-0.29,2.63C106.27,104.91,101.45,108.75,95.9,108.72z"/>
<path class="st0" d="M65.19,108.72H24.67c-1.1,0-2-0.9-2-2V66.18c0-1.1,0.9-2,2-2h40.52c1.1,0,2,0.9,2,2v13.81c0,1.1-0.9,2-2,2
	s-2-0.9-2-2V68.18H26.67v36.54h36.52v-7.39c0-1.1,0.9-2,2-2s2,0.9,2,2v9.39C67.19,107.83,66.3,108.72,65.19,108.72z"/>
<g class="st1">
	<path class="st0" d="M35.84,58.55c-0.31,0-0.61-0.07-0.88-0.21L23.9,52.89c-0.99-0.49-1.39-1.68-0.91-2.67
		c0.97-1.72,1.29-3.73,0.9-5.67c-0.29-1.24-1.11-2.28-2.24-2.85c-1.15-0.53-2.48-0.53-3.63,0c-1.77,0.88-3.16,2.36-3.93,4.18
		c-0.49,0.99-1.69,1.4-2.68,0.91c0,0,0,0,0,0l-10.3-5.14C0.13,41.17-0.27,39.99,0.19,39l4.68-9.5c-4.3-2.85-5.78-8.48-3.43-13.07
		c2.21-4.66,7.57-6.92,12.45-5.25l5-10.08c0.24-0.47,0.66-0.83,1.16-1c0.5-0.17,1.05-0.13,1.52,0.1L33.36,6
		c0.96,0.5,1.35,1.67,0.88,2.65c-1.09,1.91-1.5,4.14-1.16,6.32c0.28,2.14,2.23,3.64,4.37,3.37c0.51-0.07,1-0.23,1.44-0.49
		c1.94-1.05,3.45-2.74,4.3-4.77c0.49-0.99,1.69-1.4,2.68-0.91c0,0,0,0,0,0l9.52,4.69c0.99,0.49,1.39,1.68,0.91,2.67l-4.79,9.73
		c2.43,1.66,3.97,4.34,4.18,7.27c0.2,3.62-1.51,7.08-4.5,9.12c-2.46,1.62-5.52,2.03-8.31,1.11l-5.24,10.67
		C37.31,58.12,36.61,58.56,35.84,58.55z M27.35,50.13l7.58,3.74l5.18-10.5c0.24-0.47,0.65-0.83,1.15-1c0.5-0.18,1.06-0.14,1.53,0.1
		c2.86,1.4,4.94,0.71,6.18-0.12c1.8-1.26,2.84-3.35,2.73-5.55c-0.1-1.49-0.82-3.56-3.68-5c-0.47-0.24-0.83-0.65-1-1.15
		c-0.17-0.5-0.14-1.05,0.1-1.53l4.72-9.58l-6-3c-1.24,2.09-3.05,3.78-5.21,4.88c-2.24,1.12-4.87,1.15-7.14,0.08
		c-3.65-1.79-5.84-6.66-3.6-12.81l-8.32-4.04l-4.9,10c-0.49,0.99-1.69,1.4-2.68,0.91c0,0,0,0,0,0c-4.24-2.08-7.55-0.15-8.95,2.68
		c-0.73,1.44-0.89,3.11-0.43,4.66c0.63,1.83,2,3.3,3.77,4.07c0.47,0.24,0.83,0.65,1,1.15c0.17,0.5,0.14,1.05-0.09,1.53l-4.61,9.37
		l6.81,3.36c3.3-5,8.32-6,11.93-4.22C27.03,39.94,29.31,44.47,27.35,50.13z"/>
</g>
</svg>
