<?xml version="1.0" encoding="utf-8"?>
<!-- Generator: Adobe Illustrator 24.0.1, SVG Export Plug-In . SVG Version: 6.00 Build 0)  -->
<svg version="1.1" id="_ÎÓÈ_1" xmlns="http://www.w3.org/2000/svg" xmlns:xlink="http://www.w3.org/1999/xlink" x="0px" y="0px"
	 viewBox="0 0 124.26 89.64" style="enable-background:new 0 0 124.26 89.64;" xml:space="preserve">
<style type="text/css">
	.st0{opacity:0.7;}
	.st1{fill:#F7741C;}
</style>
<title>icons_unbranded_RGB</title>
<g class="st0">
	<path class="st1" d="M122.31,53.7c-0.57,0-1.1-0.25-1.48-0.67c-3.24-3.6-6.41-7.25-9.41-10.83c-0.6-0.93-0.34-2.16,0.59-2.77
		c0.75-0.49,1.74-0.42,2.41,0.18l9.35,10.78c0.72,0.83,0.64,2.08-0.18,2.81C123.24,53.51,122.78,53.69,122.31,53.7z"/>
</g>
<path class="st1" d="M112.81,89.56h-7.44c-0.6,0-1.17-0.27-1.55-0.73c-0.38-0.46-0.53-1.07-0.41-1.66
	c1.17-5.84-0.81-11.8-6.07-18.19c-4.92,1.73-10.09,2.6-15.3,2.59c-19.79,0-35.89-12.24-35.89-27.3c0-1.1,0.9-2,2-2s2,0.9,2,2
	c0,12.85,14.31,23.3,31.89,23.3c5.19,0.02,10.34-0.93,15.18-2.82c0.79-0.31,1.68-0.09,2.24,0.55c6.07,7,8.77,13.61,8.21,20.26h4.21
	c0.5-1.49,1.38-6.2,2.11-21.11c0-0.72,0.06-1.25,0.08-1.51c0.42-5.89-0.22-11.8-1.89-17.46c-4-13.2-13.44-22.22-25.28-24.12
	c-1.6-0.25-3.22-0.38-4.84-0.38l0,0c-1.1,0-2-0.9-2-2s0.9-2,2-2c1.84,0,3.67,0.15,5.48,0.44c13.38,2.14,24,12.2,28.47,26.9
	c1.79,6.12,2.47,12.51,2,18.87c0,0.26,0,0.76-0.08,1.45C116.83,88.36,115.26,89.56,112.81,89.56z"/>
<path class="st1" d="M104.8,89.64h-9.73c-1.1,0-2-0.9-2-2c0-0.29,0.06-0.58,0.19-0.85c2.45-5.25-2.62-13.16-4.78-15.77
	c-0.71-0.85-0.59-2.11,0.26-2.82s2.11-0.59,2.82,0.26l0,0c0.34,0.42,7.52,9.17,6.2,17.18h7c1.1,0,2,0.9,2,2s-0.9,2-2,2H104.8z"/>
<path class="st1" d="M28.61,75.7c-3.89,0.15-7.68-1.27-10.52-3.94c-7.41-7.44-6.14-21.15-5.46-28.51c0.76-7.73,2.13-15.38,4.08-22.9
	c0.11-0.44,0.33-1.52,0.58-2.68c0.42-2,0.71-3.38,0.89-4c0.36-1.04,1.5-1.6,2.54-1.24c0.97,0.33,1.53,1.34,1.3,2.34
	c-0.15,0.53-0.52,2.3-0.82,3.72c-0.26,1.23-0.5,2.37-0.62,2.85c-1.91,7.31-3.25,14.77-4,22.29c-0.62,6.71-1.78,19.21,4.3,25.32
	c3.64,3.66,10.4,3.31,14.91,1.12c4.34-2.1,6.35-6.71,4.77-10.94c-0.87-2.34-3.51-4.59-6.4-5.47c-1.86-0.68-3.94-0.48-5.63,0.56
	c-1.9,1.26-2.61,3.7-1.68,5.78c0.87,1.58,2.61,1.28,3.91,0.74c1.02-0.42,2.19,0.08,2.61,1.1c0.42,1.02-0.08,2.19-1.1,2.61
	c-4.54,1.85-7.64-0.2-8.92-2.52c-1.93-3.86-0.72-8.56,2.85-11c2.69-1.8,6.07-2.22,9.12-1.14c4.14,1.26,7.67,4.36,9,7.9
	c2.31,6.21-0.53,12.91-6.77,15.94C34.76,74.97,31.71,75.68,28.61,75.7z"/>
<path class="st1" d="M45.54,42.96c-3.11,0.01-6.19-0.67-9-2c-0.97-0.52-1.34-1.74-0.81-2.71c0.49-0.9,1.57-1.29,2.52-0.9
	c5.17,2.44,11.3,2.07,18.75-1.12c5.74-2.46,8.91-6.87,8.91-12.41c0-10.93-7-19.83-15.62-19.83C48.32,4,46.37,4.46,44.61,5.35
	c-0.57,0.29-1.24,0.29-1.81,0C41.13,4.46,39.26,4,37.36,4c-7.68,0-16.13,6.36-16.46,15.82c-0.04,1.1-0.97,1.97-2.07,1.93
	s-1.97-0.97-1.93-2.07C17.3,7.91,27.8,0,37.35,0c2.19,0,4.36,0.47,6.36,1.36C45.78,0.46,48.01,0,50.26,0
	C61.1,0,69.9,10.7,69.9,23.83c0,7.14-4.13,13-11.33,16.09C54.48,41.8,50.05,42.84,45.54,42.96z"/>
<g class="st0">
	<path class="st1" d="M15.01,50.05c-4.93-0.1-9.76-1.47-14-4c-0.96-0.55-1.3-1.78-0.74-2.74c0.55-0.96,1.78-1.3,2.74-0.75
		c13.59,7.63,26.33,2.57,39-15.46c0.63-0.91,1.88-1.13,2.78-0.49c0.91,0.63,1.13,1.88,0.5,2.78C35.61,43.16,25.49,50.05,15.01,50.05
		z"/>
</g>
<path class="st1" d="M55.46,89.56H40.71c-1.1,0-2-0.9-2-2V68.88c0-1.1,0.9-2,2-2s2,0.9,2,2v16.68h10.75V73.7c0-1.1,0.9-2,2-2
	s2,0.9,2,2v13.9C57.44,88.69,56.55,89.56,55.46,89.56z"/>
<path class="st1" d="M67.9,89.56H55.46c-1.1,0-2-0.9-2-2s0.9-2,2-2H65.9v-5.58c0-1.1,0.9-2,2-2s2,0.9,2,2v7.58
	C69.9,88.66,69.01,89.56,67.9,89.56z"/>
</svg>
