<?xml version="1.0" encoding="utf-8"?>
<!-- Generator: Adobe Illustrator 24.0.1, SVG Export Plug-In . SVG Version: 6.00 Build 0)  -->
<svg version="1.1" id="_ÎÓÈ_1" xmlns="http://www.w3.org/2000/svg" xmlns:xlink="http://www.w3.org/1999/xlink" x="0px" y="0px"
	 viewBox="0 0 101 78.03" style="enable-background:new 0 0 101 78.03;" xml:space="preserve">
<style type="text/css">
	.st0{fill:#F7741C;}
	.st1{opacity:0.65;}
</style>
<title>icons_unbranded_RGB</title>
<path class="st0" d="M53.8,71.45c-3.08-0.09-6.04-1.19-8.43-3.14c-0.17-0.14-0.33-0.27-0.48-0.41c-1.92,1.26-4.2,1.87-6.49,1.73
	c-3.06-0.25-6-1.28-8.54-3c-0.43-0.26-0.85-0.55-1.26-0.85c-2.53,0.73-4.6-0.31-6.17-1.11c-0.81-0.47-1.7-0.81-2.62-1
	c-0.92-0.12-1.8-0.19-2.65-0.26c-3-0.25-6.14-0.5-9.48-2.82c-7.25-5.07-9.74-14.66-5.87-22.62c0.11-0.22,0.22-0.44,0.31-0.67
	l-0.16-0.19L1.79,36.9c-1.41-1.78-1.89-4.12-1.28-6.31c0.83-2.92,2.81-5.37,5.5-6.79c-0.68-3.04-0.15-6.22,1.47-8.88
	c2.52-4.09,7.76-6.44,12.76-5.95c1.7-4.21,4.33-6.9,8-8.21c3.15-1.1,6.6-1,9.68,0.28c0.97,0.48,1.86,1.08,2.67,1.79
	c0.67,0.61,1.44,1.12,2.26,1.51c0.13-0.08,0.27-0.16,0.41-0.22l0.14-0.07c3.26-1.6,6.96-2.07,10.51-1.31
	c2.12,0.6,4.17,1.43,6.11,2.47c3.87-4.62,10.75-5.23,15.37-1.36c2.18,1.83,3.56,4.43,3.85,7.26c1.41-0.5,2.93-0.56,4.37-0.16
	c3.82,1.13,5.62,5.37,7.21,9.11c0.31,0.74,0.62,1.46,0.93,2.12c0.49,1.05,1.48,1.42,3.18,2c2.42,0.78,6.07,2,6.07,7.48
	c0,1.74-0.53,3.43-1.51,4.86c0,1.54-2.78,5.13-5.09,6.7c-0.09,2.19-0.69,4.33-1.76,6.25c-0.2,0.4-0.39,0.82-0.59,1.25
	c-1.66,3.58-3.73,8-8.32,9.32c-0.96,0.27-1.95,0.4-2.94,0.4c-1.1,0-2-0.9-2-2s0.9-2,2-2c0.63,0,1.26-0.08,1.87-0.25
	c2.8-0.79,4.31-4,5.76-7.16c0.21-0.44,0.41-0.88,0.61-1.29c0.89-1.86,1.72-3.79,1.23-5.27l0,0c-0.35-1.05,0.21-2.18,1.26-2.53
	c0.25-0.08,0.5-0.11,0.76-0.1c1.23-1.02,2.3-2.21,3.18-3.54v-0.14c-0.06-0.55,0.1-1.1,0.46-1.52c0.71-0.84,1.09-1.9,1.09-3
	c0-2.6-1-2.94-3.3-3.67c-1.93-0.63-4.32-1.41-5.57-4.09c-0.33-0.7-0.66-1.46-1-2.25c-1.24-2.92-2.66-6.24-4.66-6.84
	c-1.09-0.32-2.54,0.13-4.33,1.33c-0.89,0.65-2.14,0.46-2.8-0.43c-0.36-0.5-0.48-1.13-0.31-1.72c0.14-0.55,0.21-1.11,0.22-1.67
	c-0.01-3.82-3.1-6.9-6.92-6.91c-2.59,0-4.95,1.47-6.1,3.79l0,0c-0.45,1.01-1.63,1.46-2.64,1.01c-0.53-0.24-0.93-0.69-1.1-1.24
	C56.79,8,54.99,7.23,53.11,6.67c-2.67-0.56-5.45-0.21-7.89,1L45.1,7.73c-0.62,0.34-1.3,0.56-2,0.64c-1.86,0.15-3.54-1.19-5-2.38
	c-0.53-0.46-1.1-0.86-1.7-1.21c-2.16-0.9-4.58-0.98-6.8-0.22c-3,1.06-4.85,3.31-6.13,7.31c-0.32,1-1.37,1.59-2.39,1.33
	c-3.81-1-8.29,0.73-10.21,3.82C9.73,18.9,9.42,21.17,10,23.3c0.31,0.85,0.25,1.79-0.17,2.59c-0.38,0.58-0.94,1.03-1.59,1.26
	C6.39,27.99,5,29.6,4.41,31.55c-0.3,0.97-0.11,2.02,0.52,2.82l0.13,0.16c0.46,0.49,0.8,1.08,1,1.72c0.24,1.17,0.03,2.38-0.6,3.39
	C2.42,45.83,4.34,53.33,10,57.29c2.45,1.7,4.69,1.88,7.52,2.11c0.9,0.08,1.84,0.15,2.84,0.28c1.37,0.24,2.69,0.71,3.9,1.4
	c1.75,0.89,2.58,1.25,3.82,0.61c0.75-0.38,1.67-0.25,2.28,0.33c0.51,0.45,1.06,0.85,1.64,1.2c1.96,1.35,4.24,2.18,6.61,2.41
	c2.03,0.19,4.02-0.65,5.31-2.24c0.65-0.89,1.9-1.09,2.79-0.45c0.6,0.43,0.91,1.16,0.81,1.9c0.11,0.12,0.23,0.23,0.36,0.33
	c2.32,1.83,5.19,2.67,7.31,2.12c1.57-0.44,2.82-1.62,3.36-3.15c0.47-1,1.66-1.43,2.66-0.96c0.95,0.44,1.39,1.54,1.02,2.52
	c-1,2.69-3.23,4.72-6,5.47C55.44,71.37,54.62,71.46,53.8,71.45z"/>
<path class="st0" d="M85.83,78.03c-0.99,0.01-1.85-0.71-2-1.69c-0.39-2.52-10.07-6.92-23.86-9.45c-1.09-0.15-1.86-1.15-1.72-2.25
	c0.15-1.09,1.15-1.86,2.25-1.72c0.06,0.01,0.13,0.02,0.19,0.03c6.06,1.11,25.94,5.31,27.09,12.77c0.14,1.07-0.58,2.06-1.64,2.24
	L85.83,78.03z"/>
<path class="st0" d="M93.82,78.03c-1.03,0.01-1.9-0.77-2-1.8c-0.89-8.88-12.05-16.06-12.16-16.13c-0.93-0.59-1.21-1.83-0.62-2.76
	c0.59-0.93,1.83-1.21,2.76-0.62c0.53,0.34,12.92,8.29,14,19.11c0.11,1.1-0.69,2.08-1.79,2.19c0,0,0,0,0,0L93.82,78.03z"/>
<path class="st0" d="M72.18,19.81c-0.9,0.01-1.69-0.58-1.94-1.44c0-0.07-1.11-3.58-3.69-4.57c-1.49-0.57-3.34-0.2-5.51,1.12
	c-0.94,0.57-2.18,0.27-2.75-0.67c-0.57-0.94-0.27-2.18,0.67-2.75c3.3-2,6.35-2.48,9.06-1.42c4.43,1.72,6,7,6.06,7.17
	c0.31,1.06-0.3,2.17-1.36,2.48c0,0,0,0-0.01,0C72.54,19.78,72.36,19.8,72.18,19.81z"/>
<path class="st0" d="M28.09,55.45c-3.42,0.11-6.79-0.87-9.62-2.79c-2.99-2.17-5.05-5.38-5.78-9c-0.17-1.09,0.57-2.11,1.66-2.28
	c1.07-0.18,2.08,0.53,2.29,1.59c0.57,2.59,2.06,4.88,4.19,6.44c2.79,2,6.65,2.49,11.47,1.61c1.09-0.2,2.13,0.52,2.33,1.61
	s-0.52,2.13-1.61,2.33C31.4,55.27,29.75,55.43,28.09,55.45z"/>
<path class="st0" d="M24.87,15.77c-0.4,0-0.78-0.12-1.11-0.34l-3.35-2.25c-0.93-0.6-1.19-1.84-0.59-2.77s1.84-1.19,2.77-0.59
	c0.02,0.01,0.04,0.03,0.06,0.04l3.35,2.25c0.92,0.62,1.16,1.86,0.54,2.78C26.17,15.44,25.54,15.77,24.87,15.77z"/>
<path class="st0" d="M11.52,28.9c-0.38,0-0.75-0.11-1.07-0.32l-2.89-1.84c-0.97-0.53-1.32-1.75-0.79-2.72
	c0.53-0.97,1.75-1.32,2.72-0.79c0.07,0.04,0.14,0.09,0.21,0.14l2.9,1.84c0.93,0.59,1.21,1.83,0.62,2.76
	C12.86,28.55,12.21,28.9,11.52,28.9z"/>
<g class="st1">
	<path class="st0" d="M49.75,54.55c-0.75,0.01-1.47-0.29-2-0.82l-13-13.45c-4.33-4.5-5.86-10-4.1-14.63
		c1.32-3.52,4.41-6.06,8.12-6.68c2.23-0.39,6.43-0.39,11,3.45c5.7-4.77,11.78-4.16,15.54-1.2c2.58,2.06,4.08,5.17,4.1,8.47
		c0,2.57-0.75,6.5-4.7,10.6l-13,13.45C51.19,54.25,50.49,54.55,49.75,54.55z M50.96,51.2L50.96,51.2z M40.72,22.63
		c-0.38,0-0.76,0.03-1.14,0.1c-2.24,0.43-4.09,2.01-4.86,4.16c-1.27,3.35,0,7.42,3.28,10.87l0,0l11.75,12.21l11.74-12.19
		c3.07-3.19,3.69-6.13,3.66-8c0.01-2.18-0.96-4.24-2.65-5.62c-1.34-1.07-3.07-1.54-4.77-1.3c-2.48,0.44-4.73,1.73-6.38,3.63
		c-0.43,0.42-1,0.65-1.6,0.65l0,0c-0.6,0.01-1.18-0.23-1.6-0.65C45.75,23.97,43.16,22.63,40.72,22.63z"/>
</g>
</svg>
