<?xml version="1.0" encoding="utf-8"?>
<!-- Generator: Adobe Illustrator 24.0.1, SVG Export Plug-In . SVG Version: 6.00 Build 0)  -->
<svg version="1.1" id="_ÎÓÈ_1" xmlns="http://www.w3.org/2000/svg" xmlns:xlink="http://www.w3.org/1999/xlink" x="0px" y="0px"
	 viewBox="0 0 90.3 88.94" style="enable-background:new 0 0 90.3 88.94;" xml:space="preserve">
<style type="text/css">
	.st0{fill:#F7741C;}
	.st1{opacity:0.66;}
</style>
<title>icons_unbranded_RGB</title>
<path class="st0" d="M29.06,88.93c-0.47,0-0.92-0.16-1.28-0.46c-0.46-0.38-0.72-0.95-0.72-1.54V28.5c-0.02-0.98,0.68-1.82,1.64-2
	l59.24-11c1.09-0.2,2.13,0.52,2.33,1.61c0.02,0.13,0.03,0.26,0.03,0.39v58.43c0.02,0.98-0.68,1.82-1.64,2l-59.24,11
	C29.3,88.94,29.18,88.94,29.06,88.93z M31.06,30.17v54.36L86.3,74.31V19.95L31.06,30.17z"/>
<path class="st0" d="M29.06,30.5c-0.41,0-0.8-0.12-1.14-0.35l-27-18.75c-0.9-0.64-1.1-1.89-0.46-2.79c0.3-0.42,0.75-0.7,1.26-0.8
	l54.66-7.79c0.4-0.05,0.81,0.01,1.17,0.19l31.62,15.58c0.98,0.52,1.35,1.73,0.83,2.7c-0.49,0.94-1.63,1.32-2.59,0.89L56.33,4.03
	l-49,7l22.86,15.83c0.91,0.63,1.13,1.88,0.5,2.78C30.31,30.17,29.71,30.49,29.06,30.5z"/>
<path class="st0" d="M29.06,88.93c-0.43,0-0.85-0.14-1.2-0.4L0.8,68.21C0.3,67.83,0,67.24,0,66.61V9.75c0-1.1,0.9-2,2-2s2,0.9,2,2
	v55.87l26.25,19.71c0.88,0.66,1.06,1.92,0.4,2.8C30.27,88.63,29.68,88.93,29.06,88.93L29.06,88.93z"/>
<g class="st1">
	<ellipse class="st0" cx="15.08" cy="45.61" rx="3.57" ry="4.68"/>
</g>
<g class="st1">
	<ellipse class="st0" cx="53.99" cy="8.93" rx="4.68" ry="2.34"/>
</g>
<g class="st1">
	<ellipse class="st0" cx="43.53" cy="14.09" rx="4.68" ry="2.34"/>
</g>
<g class="st1">
	<ellipse class="st0" cx="32.72" cy="20.9" rx="4.68" ry="2.34"/>
</g>
<g class="st1">
	<circle class="st0" cx="59.66" cy="52.24" r="4.68"/>
</g>
<g class="st1">
	<circle class="st0" cx="76.07" cy="33.19" r="4.68"/>
</g>
<g class="st1">
	<circle class="st0" cx="40.46" cy="39.14" r="4.68"/>
</g>
<g class="st1">
	<circle class="st0" cx="39.87" cy="72.54" r="4.68"/>
</g>
<g class="st1">
	<circle class="st0" cx="76.07" cy="66.2" r="4.68"/>
</g>
</svg>
