<?xml version="1.0" encoding="utf-8"?>
<!-- Generator: Adobe Illustrator 24.0.1, SVG Export Plug-In . SVG Version: 6.00 Build 0)  -->
<svg version="1.1" id="_ÎÓÈ_1" xmlns="http://www.w3.org/2000/svg" xmlns:xlink="http://www.w3.org/1999/xlink" x="0px" y="0px"
	 viewBox="0 0 106.68 82.18" style="enable-background:new 0 0 106.68 82.18;" xml:space="preserve">
<style type="text/css">
	.st0{fill:#F7741C;}
	.st1{opacity:0.71;}
	.st2{opacity:0.68;}
</style>
<title>icons_unbranded_RGB</title>
<path class="st0" d="M104.64,82.13c-0.13,0.01-0.27,0.01-0.4,0c-14.3-2.89-30.87-2.88-50.63,0c-0.24,0.04-0.48,0.04-0.72,0
	c-16.63-3.63-33.85-3.63-50.48,0c-1.08,0.23-2.14-0.47-2.37-1.55C0.01,80.44,0,80.28,0,80.13V14.06c0-1.1,0.9-2,2-2h6.31
	c1.1,0,2,0.9,2,2s-0.9,2-2,2H4.03v61.63c16.32-3.23,33.13-3.09,49.4,0.41c19-2.77,35.12-2.89,49.24-0.39V16.06h-2.64
	c-1.1,0-2-0.9-2-2s0.9-2,2-2h4.65c1.1,0,2,0.9,2,2v66.07c0,1.1-0.9,2-2,2H104.64z"/>
<g class="st1">
	<path class="st0" d="M52.42,81.2c-0.35,0.01-0.69-0.08-1-0.25c-20.06-11.11-24-10.8-37.15-7.73c-0.6,0.14-1.22-0.01-1.7-0.39
		c-0.47-0.38-0.75-0.95-0.75-1.56V5.76c0-0.8,0.48-1.52,1.21-1.83c14.92-6.66,22.12-5.32,40.54,7.57c0.53,0.37,0.85,0.98,0.85,1.63
		V79.2C54.42,80.31,53.53,81.2,52.42,81.2z M26.12,67.42c6.66,0,12.92,2.27,24.3,8.41V14.18C34.31,3,28.32,1.72,15.85,7.06v61.71
		C19.21,67.95,22.66,67.5,26.12,67.42z"/>
</g>
<g class="st2">
	<path class="st0" d="M53.48,80.67c-1.1,0-2-0.9-2-2v-65.3c0-0.64,0.31-1.24,0.83-1.62C70.02-1.11,76.72-2.31,94.48,4.19
		c0.78,0.29,1.31,1.03,1.31,1.87v64.76c0,0.59-0.26,1.16-0.72,1.54c-0.46,0.38-1.06,0.54-1.65,0.43
		c-16.25-3.09-19.91-3.33-38.94,7.61C54.18,80.58,53.83,80.67,53.48,80.67z M55.48,14.39v60.85c16.09-9,21.48-9.51,36.31-6.82V7.48
		C76.63,2.06,71.03,3.2,55.48,14.39z"/>
</g>
</svg>
