<?xml version="1.0" encoding="utf-8"?>
<!-- Generator: Adobe Illustrator 24.0.1, SVG Export Plug-In . SVG Version: 6.00 Build 0)  -->
<svg version="1.1" id="_ÎÓÈ_1" xmlns="http://www.w3.org/2000/svg" xmlns:xlink="http://www.w3.org/1999/xlink" x="0px" y="0px"
	 viewBox="0 0 113.88 120.18" style="enable-background:new 0 0 113.88 120.18;" xml:space="preserve">
<style type="text/css">
	.st0{fill:#F7741C;}
	.st1{opacity:0.54;}
	.st2{opacity:0.68;}
</style>
<title>icons_unbranded_RGB</title>
<path class="st0" d="M46.31,110.91c-0.18,0-0.36-0.03-0.54-0.07c-0.51-0.15-0.94-0.49-1.2-0.95l-14.48-25.8
	C-0.09,69.98-0.47,58.02,0.12,54.67c1.34-7.49,13.53-16.2,37.13-17.58c1.1-0.07,2.05,0.78,2.12,1.88c0.07,1.1-0.78,2.05-1.88,2.12
	c-17.49,1-32.18,7.3-33.43,14.29c-1.21,6.77,10.17,17,28.3,25.39c0.38,0.18,0.7,0.47,0.9,0.84l13.82,24.58L72.33,92
	c0.35-0.2,0.76-0.29,1.16-0.25c19.23,1.67,33.71-1.41,36-7.67c2.64-7.1-7.66-20.52-23.43-30.56c-0.95-0.56-1.27-1.79-0.71-2.74
	s1.79-1.27,2.74-0.71c0.04,0.02,0.08,0.05,0.12,0.08c15.33,9.75,28.86,25,25,35.32c-4.47,12.08-30.59,11-39.51,10.31l-26.41,14.87
	C46.99,110.82,46.65,110.91,46.31,110.91z"/>
<path class="st0" d="M77.4,52.96c-12.22,0.05-24.15-3.66-34.2-10.61c-0.71-0.48-1.03-1.36-0.8-2.19l2.18-7.79
	c1.11-3.91,4.67-6.61,8.73-6.62c4.87-0.06,5.81-2.83,6.09-4.92c0.08-0.75,0.03-1.51-0.13-2.24c-0.24-0.8-0.54-1.59-0.9-2.35
	c-0.86-2-1.85-4.25-0.93-7.51c1.86-6.66,9.75-10.29,17.58-8.09s12.67,9.4,10.8,16.05c-0.93,3.33-3.4,4.92-5.38,6.21
	c-1.79,1.16-2.91,1.94-3.32,3.36c-1,3.33,2.85,6.24,4.54,7.34c2.95,1.86,4.33,5.44,3.4,8.8l0,0l-2.53,9
	c-0.23,0.82-0.97,1.41-1.82,1.45C79.6,52.93,78.49,52.96,77.4,52.96z M46.64,39.84c9.62,6.29,20.94,9.47,32.43,9.09l2.14-7.61
	c0.45-1.68-0.25-3.45-1.73-4.36c-5.16-3.35-7.42-7.66-6.2-11.83c0.85-2.91,3-4.33,5-5.59s3.2-2.15,3.7-3.93
	c1.27-4.53-2.33-9.52-8-11.12S62.61,5.28,61.34,9.81c-0.53,1.89,0,3.06,0.75,4.83c0.43,0.93,0.79,1.89,1.08,2.87
	c0.31,1.26,0.39,2.57,0.25,3.86c-0.73,5.34-4.29,8.31-10,8.38c-2.28,0-4.29,1.51-4.92,3.7L46.64,39.84z M83.13,41.84L83.13,41.84z"
	/>
<g class="st1">
	<path class="st0" d="M93.96,70.18h-0.11c-26.27-1.48-48.24-7.65-67.18-18.87c-1.01-0.45-1.45-1.64-1-2.65
		c0.45-1.01,1.64-1.45,2.65-1c0.12,0.06,0.24,0.12,0.35,0.21c18.37,10.88,39.75,16.88,65.36,18.32c1.1,0.03,1.98,0.95,1.94,2.06
		c-0.03,1.1-0.95,1.98-2.05,1.94L93.96,70.18z"/>
</g>
<g class="st1">
	<path class="st0" d="M96.91,82.41c-28.94,0-57.4-8.42-84.66-25c-0.94-0.57-1.24-1.81-0.67-2.75s1.81-1.24,2.75-0.67l0,0
		c28,17.06,57.22,25.27,86.89,24.39c1.1-0.03,2.03,0.84,2.06,1.94s-0.84,2.03-1.94,2.06C99.85,82.39,98.38,82.41,96.91,82.41z"/>
</g>
<g class="st2">
	<path class="st0" d="M59.46,120.18c-4.96-0.02-9.92-0.33-14.85-0.94c-12.2-1.49-32.61-5.93-31.7-13.15
		c0.3-2.46,3.53-6.52,21.83-6.06c1.1,0.03,1.98,0.95,1.95,2.05c-0.03,1.1-0.95,1.98-2.05,1.95c-11.92-0.3-17.09,1.58-17.74,2.55
		c0.65,2,10.7,6.57,28.23,8.71s28.38,0.08,29.49-1.66c-0.22-0.53-1.88-2.18-7.29-4.13c-1.03-0.4-1.53-1.57-1.13-2.59
		c0.39-0.99,1.48-1.5,2.49-1.17c7,2.54,10.3,5.28,9.92,8.37C78.01,118.78,69.03,120.18,59.46,120.18z"/>
</g>
</svg>
