<?xml version="1.0" encoding="utf-8"?>
<!-- Generator: Adobe Illustrator 24.0.1, SVG Export Plug-In . SVG Version: 6.00 Build 0)  -->
<svg version="1.1" id="_ÎÓÈ_1" xmlns="http://www.w3.org/2000/svg" xmlns:xlink="http://www.w3.org/1999/xlink" x="0px" y="0px"
	 viewBox="0 0 130.63 96.22" style="enable-background:new 0 0 130.63 96.22;" xml:space="preserve">
<style type="text/css">
	.st0{opacity:0.7;}
	.st1{fill:#F7741C;}
</style>
<title>icons_unbranded_RGB</title>
<g class="st0">
	<path class="st1" d="M94.51,86.43c-0.59-0.01-1.19-0.06-1.77-0.16c-3.06-0.54-6.14-1.19-9.12-1.81l-3.39-0.7l-2.31-0.49
		c-1.7-0.38-3.32-0.74-5-1c-0.71-0.01-1.42,0.07-2.11,0.26l-0.6,0.13c-3.51,0.71-7.02,1.43-10.53,2.17L53.5,86.1
		c-1.81,0.45-3.71,0.37-5.47-0.23c-3.54-1.26-5.49-5.06-4.72-9.16c0.21-1.16,0.6-2.27,1.17-3.3c-1.04,0.12-2.09,0.01-3.07-0.34
		c-2.49-0.79-4.34-2.91-4.78-5.49c-0.44-2.21,0.32-4.49,2-6c1.71-1.68,3.44-3.34,5.17-5c2.69-2.39,4.97-5.2,6.74-8.33
		c1.4-2.68,3-5.29,4.52-7.82c0.74-1.22,1.48-2.45,2.2-3.68c1.4-2.19,3.62-3.74,6.16-4.28c3.84-1.08,7.68-1,11.4-0.85h0.22
		c2.85-0.02,5.68,0.48,8.35,1.49c1.99,0.81,3.65,2.26,4.71,4.13c2.74,4.76,5.66,9.72,8.67,14.74c0.19,0.24,0.41,0.45,0.65,0.63
		c0.24,0.21,0.47,0.41,0.69,0.63l2.61,2.61l4.65,4.65c0.14,0.13,0.29,0.26,0.45,0.38c0.24,0.2,0.47,0.39,0.69,0.59
		c2.01,1.72,2.76,4.5,1.91,7c-0.81,2.54-2.98,4.41-5.62,4.83c-0.66,0.15-1.33,0.19-2,0.13c0.56,0.99,0.94,2.06,1.14,3.17
		c0.55,2.57-0.1,5.26-1.76,7.3C98.75,85.53,96.68,86.46,94.51,86.43z M72.66,78.28c0.29,0,0.58,0.02,0.86,0.06
		c1.79,0.25,3.56,0.64,5.26,1l2.25,0.48l3.4,0.71c2.95,0.61,6,1.25,9,1.78c1.38,0.37,2.85-0.05,3.82-1.09
		c0.84-1.13,1.13-2.56,0.81-3.93c-0.18-1.42-0.98-2.68-2.18-3.46c-0.12-0.05-0.24-0.09-0.37-0.12l-2.08-0.59
		c-3.12-0.88-6.23-1.76-9.35-2.61c-1.52-0.29-2.55-1.71-2.35-3.24c0.09-1.2,0.13-2.4,0.18-3.6c0-0.66,0.05-1.32,0.08-2
		c0.08-1.69,0.16-3.37,0.25-5.06l0.11-2.19c0.05-1.1,0.99-1.95,2.1-1.9c0.15,0.01,0.29,0.03,0.43,0.07
		c0.56,0.11,1.06,0.44,1.37,0.92c0.17,0.26,0.34,0.54,0.49,0.82l0.09,0.16c0.98,2.05,2.27,3.93,3.83,5.58
		c3.38,3.2,6.47,6.09,9.46,8.82c0.5,0.47,1.21,0.64,1.87,0.47c1.24-0.11,2.29-0.96,2.67-2.15c0.38-1.05,0.02-2.23-0.88-2.9
		c-0.14-0.13-0.28-0.24-0.43-0.36c-0.26-0.21-0.51-0.43-0.75-0.66c-1.56-1.55-3.11-3.11-4.66-4.66l-2.61-2.6
		c-0.14-0.15-0.31-0.28-0.47-0.42c-0.58-0.45-1.07-1-1.47-1.61c-3-5-6-10-8.7-14.8c-0.63-1.09-1.61-1.93-2.78-2.39
		c-2.22-0.81-4.57-1.21-6.94-1.18h-0.22c-3.57-0.11-7-0.21-10.19,0.7c-2,0.57-3.11,1.28-3.8,2.45s-1.45,2.48-2.23,3.72
		c-1.5,2.48-3,5-4.4,7.6c-1.97,3.52-4.51,6.69-7.51,9.38c-1.72,1.64-3.44,3.28-5.13,5c-0.72,0.56-1.08,1.48-0.91,2.38
		c0.16,1.17,1,2.14,2.13,2.47c1.06,0.4,2.26,0.1,3-0.75l1-0.92c1.69-1.6,3.43-3.26,5.24-4.82c1.9-1.53,3.52-3.37,4.79-5.45
		c0.47-0.82,0.95-1.63,1.43-2.46l0.8-1.39c0.34-0.59,0.96-0.97,1.65-1c0.68-0.03,1.33,0.29,1.72,0.85c0.31,0.36,0.49,0.82,0.52,1.3
		l0.17,3.75c0.14,3,0.28,6.08,0.44,9.12c0.15,1.44-0.84,2.75-2.27,3l-3.43,1c-2.23,0.64-4.54,1.3-6.84,1.87
		c-2.09,0.52-3.18,1.76-3.64,4.14c-0.42,2.17,0.45,4.05,2.17,4.67c1.08,0.33,2.22,0.35,3.31,0.07l6.18-1.27
		c3.49-0.82,7-1.56,10.51-2.23l0.56-0.11C70.88,78.46,71.77,78.32,72.66,78.28z M85.77,66.81l8.75,2.45h0.13
		c-2.15-2-4.38-4.08-6.74-6.31c-0.69-0.66-1.32-1.37-1.88-2.14c0,0.34,0,0.68,0,1c0,0.64,0,1.29-0.08,1.94
		C85.87,64.81,85.83,65.81,85.77,66.81z M59.12,60.95c-1.33,1.8-2.87,3.43-4.59,4.86c-1.27,1.1-2.52,2.26-3.75,3.41
		c2-0.5,3.94-1.06,5.87-1.61l2.75-0.78c-0.09-1.94-0.19-3.9-0.28-5.85V60.95z M84.31,54.56L84.31,54.56z"/>
	<path class="st1" d="M72.51,27.81c-3.67,0.02-7.2-1.42-9.82-4c-2.64-2.58-4.12-6.12-4.12-9.81C58.49,6.35,64.63,0.08,72.29,0
		c0.12,0,0.23,0,0.35,0l0,0c3.71-0.02,7.27,1.42,9.93,4c2.66,2.57,4.17,6.1,4.17,9.8c0,7.73-6.27,14-14,14c-0.02,0-0.05,0-0.07,0
		L72.51,27.81z M72.65,4.03c-5.48-0.09-9.99,4.28-10.08,9.76c0,0.06,0,0.13,0,0.19c-0.01,2.63,1.05,5.16,2.93,7
		c1.9,1.88,4.49,2.91,7.16,2.85c4.91-0.06,10.13-3.58,10.12-10c-0.02-2.62-1.1-5.12-3-6.93c-1.91-1.86-4.47-2.89-7.14-2.88
		L72.65,4.03z"/>
</g>
<path class="st1" d="M113.01,96.22L113.01,96.22l-111-0.16c-1.1,0-2-0.89-2.01-1.99c0-0.35,0.09-0.7,0.27-1.01l20-35.58
	c0.36-0.62,1.02-1,1.74-1h12.8c1.1,0,2,0.9,2,2s-0.9,2-2,2H23.19L5.46,92.06l106.25,0.15l13.8-31.63l-12.33,0.15l0,0
	c-1.1,0-2-0.9-2-2s0.9-2,2-2l15.43-0.18c0.68,0,1.31,0.33,1.69,0.89c0.37,0.57,0.44,1.29,0.16,1.91L114.9,95.02
	C114.57,95.77,113.82,96.24,113.01,96.22z"/>
</svg>
