<?xml version="1.0" encoding="utf-8"?>
<!-- Generator: Adobe Illustrator 24.0.1, SVG Export Plug-In . SVG Version: 6.00 Build 0)  -->
<svg version="1.1" id="_ÎÓÈ_1" xmlns="http://www.w3.org/2000/svg" xmlns:xlink="http://www.w3.org/1999/xlink" x="0px" y="0px"
	 viewBox="0 0 100.77 101.09" style="enable-background:new 0 0 100.77 101.09;" xml:space="preserve">
<style type="text/css">
	.st0{opacity:0.65;}
	.st1{fill:#F7741C;}
</style>
<title>icons_unbranded_RGB</title>
<g id="icon">
	<g class="st0">
		<path class="st1" d="M53.68,54.52c-1.1,0-2-0.89-2.01-1.99c0-0.87,0.55-1.64,1.38-1.91c9.37-3.07,29.4-26.89,43.7-46.35
			c0.05-0.09,0.02-0.21-0.07-0.26c-0.06-0.03-0.13-0.03-0.19,0C77.02,18.31,53.2,38.33,50.14,47.7c-0.3,1.06-1.41,1.68-2.47,1.37
			s-1.68-1.41-1.37-2.47c0.01-0.05,0.03-0.1,0.05-0.14C50.56,33.55,83.98,8.24,94.12,0.79c1.88-1.35,4.5-0.93,5.85,0.94
			c1.06,1.46,1.06,3.44,0,4.91C92.52,16.78,67.21,50.2,54.3,54.42C54.1,54.49,53.89,54.52,53.68,54.52z"/>
	</g>
	<g class="st0">
		<path class="st1" d="M36.15,69.65c-2.95,0-5.89-0.38-8.75-1.13c-1.06-0.3-1.68-1.4-1.39-2.47c0.16-0.57,0.57-1.04,1.11-1.28
			c1.61-0.72,4.22-4.51,5.54-9c0.9-3,2.47-5.75,4.59-8.05c4.36-4.34,11.42-4.33,15.76,0.04c4.34,4.36,4.33,11.42-0.03,15.76
			C48,68.44,41.4,69.65,36.15,69.65z M32.31,65.4c4.67,0.55,12.58,0.5,17.84-4.76c2.78-2.78,2.78-7.28,0-10.06s-7.28-2.78-10.06,0
			l0,0c-1.65,1.83-2.87,4-3.59,6.36C35.62,59.99,34.2,62.85,32.31,65.4z"/>
	</g>
	<g class="st0">
		<path class="st1" d="M62.14,49.16c-1.06,0-1.94-0.83-2-1.89c-0.21-3.61-3.08-6.48-6.69-6.69c-1.1-0.06-1.95-1.01-1.88-2.11
			c0.06-1.1,1.01-1.95,2.11-1.89c5.63,0.33,10.12,4.82,10.45,10.45c0.06,1.1-0.78,2.05-1.88,2.11L62.14,49.16z"/>
	</g>
	<path class="st1" d="M49.34,101.09C22.09,101.09,0,78.99,0,51.74S22.1,2.39,49.36,2.39c8.24,0,16.34,2.06,23.58,6
		c0.97,0.53,1.33,1.75,0.8,2.72c-0.53,0.97-1.75,1.33-2.72,0.8C49.02-0.06,21.48,8.06,9.5,30.06S5.65,79.6,27.65,91.57
		c6.66,3.62,14.12,5.52,21.7,5.52c6.37,0,12.67-1.37,18.47-4c-6.01-9.44-3.22-21.96,6.22-27.97c5.7-3.63,12.84-4.17,19.03-1.45
		c3.3-11.99,1.52-24.81-4.92-35.45c-0.54-0.96-0.2-2.18,0.77-2.72c0.92-0.51,2.08-0.23,2.65,0.65c7.46,12.33,9.15,27.31,4.62,41
		c-0.34,1.05-1.48,1.62-2.52,1.28c-0.14-0.05-0.28-0.11-0.41-0.19c-7.69-4.62-17.68-2.13-22.3,5.56
		c-3.55,5.92-2.98,13.44,1.43,18.75c0.7,0.85,0.58,2.11-0.27,2.82c-0.11,0.09-0.23,0.17-0.36,0.23
		C64.83,99.2,57.15,101.08,49.34,101.09z"/>
	<path class="st1" d="M46.72,31.86c-4.82,0-8.73-3.91-8.73-8.73s3.91-8.73,8.73-8.73c4.82,0,8.73,3.91,8.73,8.73v0
		C55.45,27.95,51.54,31.86,46.72,31.86z M46.72,18.4c-2.61,0-4.73,2.12-4.73,4.73s2.12,4.73,4.73,4.73s4.73-2.12,4.73-4.73
		S49.34,18.4,46.72,18.4L46.72,18.4z"/>
	<path class="st1" d="M46.72,89.09c-4.82,0-8.73-3.91-8.73-8.73c0-4.82,3.91-8.73,8.73-8.73c4.82,0,8.73,3.91,8.73,8.73l0,0
		C55.45,85.18,51.54,89.09,46.72,89.09z M46.72,75.63c-2.61,0-4.73,2.12-4.73,4.73s2.12,4.73,4.73,4.73s4.73-2.12,4.73-4.73
		C51.45,77.75,49.34,75.63,46.72,75.63C46.72,75.63,46.72,75.63,46.72,75.63z"/>
	<path class="st1" d="M18.11,60.52c-4.82,0.02-8.75-3.87-8.77-8.69s3.87-8.75,8.69-8.77c4.82-0.02,8.75,3.87,8.77,8.69
		C26.82,56.57,22.93,60.5,18.11,60.52z M18.11,47.06c-2.61-0.02-4.75,2.08-4.77,4.69s2.08,4.75,4.69,4.77s4.75-2.08,4.77-4.69
		c0-0.03,0-0.05,0-0.08c0-2.6-2.09-4.71-4.69-4.73V47.06z"/>
	<path class="st1" d="M25.8,40.61c-4.82,0-8.73-3.91-8.73-8.73s3.91-8.73,8.73-8.73c4.82,0,8.73,3.91,8.73,8.73v0
		C34.53,36.71,30.63,40.61,25.8,40.61z M25.8,27.15c-2.61,0-4.73,2.12-4.73,4.73s2.12,4.73,4.73,4.73s4.73-2.12,4.73-4.73
		S28.42,27.15,25.8,27.15L25.8,27.15z"/>
	<path class="st1" d="M25.8,80.24c-4.82,0.01-8.73-3.9-8.74-8.72c0-3.05,1.58-5.87,4.18-7.46c0.96-0.57,2.2-0.27,2.77,0.69
		s0.27,2.2-0.69,2.77l0,0c-2.21,1.39-2.87,4.32-1.48,6.52c1.39,2.21,4.32,2.87,6.52,1.48c0.91-0.58,1.6-1.45,1.95-2.47
		c0.35-1.05,1.48-1.62,2.53-1.27c1.05,0.35,1.62,1.48,1.27,2.53l0,0C32.92,77.88,29.57,80.27,25.8,80.24z"/>
</g>
</svg>
