<?xml version="1.0" encoding="utf-8"?>
<!-- Generator: Adobe Illustrator 24.0.1, SVG Export Plug-In . SVG Version: 6.00 Build 0)  -->
<svg version="1.1" id="_ÎÓÈ_1" xmlns="http://www.w3.org/2000/svg" xmlns:xlink="http://www.w3.org/1999/xlink" x="0px" y="0px"
	 viewBox="0 0 122.86 105.41" style="enable-background:new 0 0 122.86 105.41;" xml:space="preserve">
<style type="text/css">
	.st0{opacity:0.65;}
	.st1{fill:#F7741C;}
	.st2{opacity:0.69;}
	.st3{opacity:0.58;}
</style>
<title>icons_unbranded_RGB</title>
<g class="st0">
	<path class="st1" d="M106.06,52.65c-0.76,0-1.5-0.19-2.16-0.55c-1.08-0.57-1.88-1.55-2.23-2.71l0,0c-0.73-2.42,0.65-4.98,3.08-5.7
		c2.42-0.73,4.98,0.65,5.7,3.08c0.72,2.4-0.63,4.94-3.03,5.69C106.98,52.58,106.52,52.65,106.06,52.65z M106.06,47.48
		c-0.06-0.01-0.11-0.01-0.17,0c-0.15,0.05-0.27,0.15-0.34,0.29c-0.07,0.14-0.07,0.3,0,0.44l0,0c0.05,0.15,0.15,0.28,0.29,0.35
		c0.14,0.06,0.3,0.06,0.44,0c0.15-0.05,0.27-0.15,0.35-0.28c0.06-0.14,0.06-0.31,0-0.45c-0.05-0.15-0.15-0.27-0.28-0.34
		C106.26,47.46,106.16,47.46,106.06,47.48z"/>
</g>
<g class="st0">
	<path class="st1" d="M118.26,42.03c-2.07,0-3.88-1.37-4.44-3.36l0,0c-0.69-2.45,0.74-4.99,3.18-5.67c1.18-0.33,2.44-0.18,3.51,0.42
		c1.07,0.59,1.86,1.59,2.18,2.77c0.68,2.45-0.75,4.98-3.19,5.67c0,0,0,0-0.01,0C119.09,41.97,118.68,42.03,118.26,42.03z
		 M117.67,37.59c0.12,0.31,0.48,0.47,0.79,0.34c0.27-0.1,0.42-0.38,0.38-0.66c-0.12-0.31-0.48-0.47-0.79-0.34
		C117.78,37.03,117.62,37.3,117.67,37.59z"/>
</g>
<g class="st0">
	<path class="st1" d="M107.87,48.13c-0.79,0-1.5-0.46-1.82-1.18L97.6,28.28c-0.41-0.89-0.1-1.95,0.71-2.49l13-8.69
		c0.92-0.61,2.16-0.36,2.77,0.56c0.05,0.08,0.1,0.16,0.14,0.24l8.23,17.33c0.5,0.99,0.11,2.19-0.88,2.69
		c-0.99,0.5-2.19,0.11-2.69-0.88c-0.01-0.03-0.03-0.06-0.04-0.09l-7.24-15.24l-9.65,6.42l7.74,17.13c0.45,1.01,0,2.19-1,2.64
		C108.44,48.03,108.16,48.11,107.87,48.13z"/>
</g>
<g class="st2">
	<path class="st1" d="M4.7,36.13H4.28c-1.24-0.11-2.39-0.71-3.19-1.67c-1.66-1.99-1.39-4.95,0.59-6.61l0,0
		c1.99-1.66,4.96-1.39,6.62,0.6c1.66,1.99,1.39,4.96-0.6,6.62c-0.85,0.71-1.92,1.09-3.02,1.09L4.7,36.13z M4.25,30.9
		c-0.3,0.24-0.35,0.68-0.1,0.98c0,0.01,0.01,0.01,0.01,0.02c0.12,0.14,0.29,0.23,0.47,0.25C4.81,32.16,5,32.1,5.14,31.99
		c0.32-0.21,0.41-0.65,0.2-0.97s-0.65-0.41-0.97-0.2c-0.04,0.03-0.08,0.06-0.12,0.1V30.9z"/>
</g>
<g class="st2">
	<path class="st1" d="M19.71,43.91c-0.36,0-0.71-0.04-1.06-0.12c-1.22-0.28-2.28-1.03-2.94-2.1c-1.38-2.21-0.7-5.11,1.51-6.49
		c2.21-1.38,5.11-0.7,6.49,1.51c1.37,2.2,0.7,5.1-1.5,6.48C21.46,43.66,20.59,43.91,19.71,43.91z M19.71,38.47
		c-0.13,0-0.27,0.04-0.38,0.11l0,0c-0.34,0.21-0.44,0.66-0.22,0.99c0,0,0,0,0,0.01c0.1,0.16,0.26,0.28,0.44,0.32
		c0.18,0.04,0.38,0.01,0.54-0.09c0.16-0.1,0.28-0.26,0.32-0.45c0.05-0.18,0.02-0.38-0.09-0.54c-0.1-0.16-0.26-0.27-0.44-0.32
		L19.71,38.47z M18.27,36.89L18.27,36.89z"/>
</g>
<g class="st2">
	<path class="st1" d="M22.17,42.56c-1.1,0-2-0.89-2.01-1.99c0-0.49,0.18-0.97,0.51-1.34l11.75-13.24l-10.31-6.76L8.77,33.71
		c-0.73,0.83-1.99,0.92-2.82,0.19s-0.92-1.99-0.19-2.82C5.78,31.05,5.8,31.02,5.83,31l14.49-15.73c0.66-0.72,1.75-0.86,2.57-0.32
		l13.67,9c0.48,0.32,0.8,0.83,0.88,1.4c0.08,0.58-0.09,1.16-0.48,1.6l-13.3,15C23.27,42.35,22.73,42.57,22.17,42.56z"/>
</g>
<g class="st2">
	<path class="st1" d="M32.16,31.3c-0.4,0-0.78-0.12-1.11-0.34l-13.63-9.12c-0.88-0.66-1.06-1.92-0.4-2.8
		c0.61-0.81,1.74-1.04,2.62-0.52l13.64,9.11c0.92,0.61,1.18,1.85,0.57,2.77C33.48,30.97,32.84,31.3,32.16,31.3z"/>
</g>
<g class="st3">
	<path class="st1" d="M73.84,26.74c-2.83,0-5.13-2.3-5.13-5.13s2.3-5.13,5.13-5.13c2.83,0,5.13,2.3,5.13,5.13l0,0
		C78.96,24.44,76.67,26.73,73.84,26.74z M73.84,20.48c-0.62,0-1.13,0.51-1.13,1.13s0.51,1.13,1.13,1.13c0.62,0,1.13-0.51,1.13-1.13
		l0,0C74.96,20.99,74.46,20.48,73.84,20.48z"/>
</g>
<g class="st3">
	<path class="st1" d="M76.98,23.61h-0.16c-1.1-0.09-1.93-1.05-1.84-2.15c0,0,0,0,0,0l1.53-19.61c0.08-1.1,1.05-1.93,2.15-1.84
		c0.36,0.03,0.71,0.15,1,0.36c0.71,0.51,7,5.11,7.55,10.6c0.1,1.1-0.71,2.09-1.81,2.19c-1.1,0.1-2.09-0.71-2.19-1.81
		c-0.18-1.78-1.59-3.71-3-5.22l-1.22,15.64C78.91,22.81,78.03,23.62,76.98,23.61z"/>
</g>
<path class="st1" d="M87.42,105.25c-0.87,0-1.74-0.16-2.56-0.47l-2.16-0.82c-3.76-1.42-5.65-5.62-4.23-9.38l5.72-15.1
	c1.42-3.76,5.61-5.65,9.37-4.23c0,0,0.01,0,0.01,0l2.16,0.82c3.75,1.43,5.64,5.62,4.22,9.38l-5.71,15.1
	C93.16,103.38,90.45,105.25,87.42,105.25z M90.99,78.78c-1.36,0-2.58,0.85-3.06,2.12l-5.72,15.09c-0.64,1.69,0.21,3.58,1.9,4.23l0,0
	l2.16,0.82c1.7,0.63,3.58-0.22,4.23-1.91l5.71-15.09c0.65-1.69-0.2-3.58-1.88-4.22c-0.01,0-0.01,0-0.02-0.01l-2.16-0.82
	c-0.38-0.14-0.78-0.21-1.18-0.21L90.99,78.78z"/>
<path class="st1" d="M38.72,105.41c-3.13-0.01-5.91-2.02-6.89-5l-5.12-15.28c-1.28-3.81,0.77-7.93,4.58-9.21c0,0,0.01,0,0.01,0
	l2.19-0.74c3.81-1.27,7.94,0.79,9.21,4.6l5.12,15.35c1.27,3.81-0.79,7.93-4.6,9.21l-2.18,0.73
	C40.29,105.3,39.51,105.42,38.72,105.41z M35.8,78.81c-0.34,0-0.68,0.06-1,0.17l-2.19,0.73c-1.72,0.57-2.64,2.43-2.07,4.15
	l5.08,15.27c0.57,1.71,2.43,2.64,4.14,2.06c0,0,0.01,0,0.01,0l0,0l2.19-0.73c1.71-0.57,2.64-2.43,2.06-4.14c0,0,0-0.01,0-0.01
	l-5.12-15.3c-0.44-1.34-1.69-2.24-3.1-2.24L35.8,78.81z"/>
<path class="st1" d="M31.99,79.9c-0.92,0-1.72-0.62-1.94-1.51c-0.61-2.41-0.88-4.9-0.8-7.39c-0.32-18.84,14.69-34.37,33.52-34.69
	s34.37,14.69,34.69,33.52c0.01,0.39,0.01,0.78,0,1.17c0.05,2.35-0.19,4.71-0.73,7c-0.3,1.06-1.41,1.68-2.47,1.37
	c-0.99-0.28-1.6-1.27-1.42-2.28c0.47-2.01,0.67-4.06,0.62-6.12c0.3-16.63-12.93-30.35-29.56-30.65S33.55,53.24,33.25,69.87
	c-0.01,0.37-0.01,0.73,0,1.1c-0.08,2.16,0.15,4.32,0.68,6.41c0.27,1.07-0.38,2.16-1.45,2.43c0,0,0,0,0,0
	C32.32,79.86,32.16,79.89,31.99,79.9z"/>
</svg>
