<?xml version="1.0" encoding="utf-8"?>
<!-- Generator: Adobe Illustrator 24.0.1, SVG Export Plug-In . SVG Version: 6.00 Build 0)  -->
<svg version="1.1" id="_ÎÓÈ_1" xmlns="http://www.w3.org/2000/svg" xmlns:xlink="http://www.w3.org/1999/xlink" x="0px" y="0px"
	 viewBox="0 0 82.49 101.74" style="enable-background:new 0 0 82.49 101.74;" xml:space="preserve">
<style type="text/css">
	.st0{fill:#F7741C;}
	.st1{opacity:0.65;}
	.st2{fill:#FFFFFF;}
</style>
<title>icons_unbranded_RGB</title>
<path class="st0" d="M19.79,101.74c-7.12,0-12.9-5.77-12.9-12.9c0-2.08,0.5-4.13,1.46-5.97L22.6,55.51h-9.7
	C5.77,55.51,0,49.73,0,42.6c0.01-7.12,5.78-12.9,12.9-12.91h15.18c-6.59-7.27-6.04-18.5,1.22-25.09s18.5-6.04,25.09,1.22
	c6.14,6.77,6.14,17.09,0,23.86h15.18c7.13-0.01,12.92,5.77,12.92,12.9c0,0.64-0.05,1.29-0.14,1.92c-1.05,6.39-6.61,11.07-13.09,11
	h-9.8l17.87,24.37c4.21,5.75,2.97,13.83-2.79,18.05c-5.75,4.21-13.83,2.97-18.04-2.79L41.68,74.83l-10.4,20
	C29.05,99.1,24.61,101.77,19.79,101.74z M40.47,33.66H12.9c-4.91,0.01-8.89,4-8.9,8.91c-0.02,4.92,3.96,8.92,8.88,8.94
	c0.01,0,0.01,0,0.02,0h16.63l-1.91,3c-0.09,0.14-0.16,0.27-0.24,0.42L11.89,84.72c-2.27,4.35-0.58,9.72,3.78,11.99
	c0,0,0.01,0.01,0.01,0.01c1.27,0.66,2.68,1.01,4.11,1c3.32,0,6.37-1.84,7.9-4.79l13.37-25.67l18.67,25.46c3,3.9,8.6,4.63,12.5,1.63
	c3.77-2.9,4.6-8.25,1.87-12.16L54.26,55.15l-0.3-0.37l-2.82-3.27h18.12c4.5,0.07,8.38-3.15,9.13-7.58c0.73-4.87-2.63-9.41-7.5-10.14
	c-0.44-0.07-0.88-0.1-1.32-0.1L40.47,33.66z M41.24,3.97h-0.68c-7.59,0.38-13.43,6.85-13.05,14.44c0.25,4.85,3.03,9.21,7.32,11.47
	l6.41,3.37l6.4-3.37c6.72-3.53,9.3-11.85,5.77-18.57C51.03,6.79,46.35,3.96,41.24,3.97L41.24,3.97z"/>
<g class="st1">
	<path class="st0" d="M70.68,54.87l-2-1.31c-2.16-1.39-2.78-4.26-1.39-6.41c0.32-0.49,0.72-0.92,1.19-1.26
		c0.16-0.11,0.26-0.29,0.27-0.48c0-0.19-0.07-0.37-0.21-0.5l-0.65-0.59c-1.89-1.73-2.03-4.66-0.3-6.56c0.04-0.05,0.09-0.1,0.14-0.14
		l0.48-0.47c0.24-0.25,0.24-0.64,0-0.89l-3.15-3.19l2.84-2.82l3.15,3.2c1.8,1.8,1.8,4.72,0,6.52l-0.47,0.48
		c-0.12,0.12-0.19,0.29-0.19,0.46c0.01,0.17,0.09,0.33,0.21,0.45l0.65,0.59c1.89,1.71,2.04,4.63,0.33,6.53
		c-0.22,0.25-0.47,0.47-0.75,0.66c-0.17,0.12-0.27,0.32-0.27,0.53c0.01,0.21,0.12,0.41,0.3,0.52l2,1.32L70.68,54.87z"/>
</g>
<g class="st1">
	<path class="st0" d="M15.39,55.16l-2.06-1.33c-2.17-1.41-2.78-4.32-1.37-6.49c0.31-0.48,0.71-0.89,1.17-1.23
		c0.16-0.12,0.26-0.31,0.27-0.51c0.02-0.2-0.06-0.4-0.21-0.54l-0.65-0.55c-0.93-0.86-1.48-2.07-1.51-3.34
		c-0.03-1.27,0.45-2.5,1.35-3.4l0.47-0.48c0.28-0.26,0.29-0.7,0.02-0.98c-0.01-0.01-0.02-0.02-0.02-0.02l-3.17-3.23l2.87-2.8
		l3.13,3.25c1.77,1.83,1.77,4.73,0,6.56l-0.47,0.48c-0.13,0.13-0.2,0.31-0.2,0.5c0.01,0.18,0.09,0.35,0.22,0.48l0.64,0.59
		c1.91,1.74,2.04,4.71,0.29,6.61c-0.21,0.23-0.45,0.44-0.7,0.63c-0.18,0.13-0.29,0.35-0.28,0.57c0.01,0.22,0.12,0.42,0.3,0.55
		l2.06,1.33L15.39,55.16z"/>
</g>
<g class="st1">
	<path class="st0" d="M55.85,94.05l-0.19-2.43c-0.21-2.54,1.68-4.78,4.22-4.99c0.6-0.05,1.21,0.02,1.78,0.2
		c0.18,0.06,0.38,0.03,0.54-0.08c0.16-0.11,0.26-0.28,0.28-0.47l0.07-0.86c0.22-2.55,2.47-4.43,5.02-4.21
		c0.08,0.01,0.15,0.02,0.23,0.03l0.66,0.09c0.34,0.05,0.67-0.18,0.72-0.53c0,0,0,0,0,0l0.64-4.44l4,0.57l-0.65,4.44
		c-0.37,2.52-2.69,4.26-5.21,3.92l-0.67-0.09c-0.17-0.03-0.35,0.02-0.48,0.13c-0.13,0.11-0.22,0.27-0.23,0.44l-0.08,0.87
		c-0.23,2.55-2.48,4.42-5.03,4.19c-0.33-0.03-0.66-0.1-0.97-0.19c-0.2-0.07-0.42-0.03-0.58,0.11c-0.17,0.13-0.26,0.33-0.24,0.54
		l0.2,2.43L55.85,94.05z"/>
</g>
<g class="st1">
	<path class="st0" d="M28.91,91.86c-2.45,0-4.47-1.91-4.62-4.35c-0.03-0.35-0.33-0.61-0.67-0.58c-0.04,0-0.08,0.01-0.13,0.02
		l-0.84,0.24c-2.47,0.7-5.04-0.73-5.74-3.21c-0.02-0.06-0.03-0.12-0.05-0.18l-0.15-0.66c-0.08-0.33-0.41-0.54-0.75-0.47l-4.38,1
		l-0.89-3.9l4.37-1c2.48-0.56,4.95,0.99,5.54,3.46l0.16,0.65c0.04,0.17,0.14,0.31,0.29,0.4c0.15,0.09,0.33,0.11,0.49,0.06l0.84-0.24
		c1.35-0.38,2.8-0.14,3.94,0.67c1.17,0.79,1.9,2.07,2,3.48c0.01,0.21,0.13,0.4,0.31,0.5c0.18,0.1,0.41,0.1,0.59,0l2.2-1.06l1.74,3.6
		l-2.2,1.06C30.33,91.68,29.62,91.85,28.91,91.86z"/>
</g>
<path class="st2" d="M31.21,26.95c0.18,0.12,5.47,4,0.42,6.5s14.65,2,14.65,2s4.62,0.48,3.59-1.28s-3-1.94-0.3-8.81
	S31.21,26.95,31.21,26.95z"/>
<path class="st0" d="M41.17,27.71c-2.42,0-4.75-1.2-6.93-3.56c-0.69-0.86-0.56-2.12,0.3-2.81c0.78-0.63,1.9-0.59,2.63,0.1
	c1.44,1.55,2.83,2.28,4.13,2.26c1.23-0.14,2.35-0.75,3.14-1.7c0.74-0.82,2-0.89,2.82-0.16c0.74,0.67,0.88,1.78,0.33,2.61
	c-1.49,1.88-3.7,3.06-6.09,3.25L41.17,27.71z"/>
<circle class="st0" cx="36.1" cy="14.2" r="2.35"/>
<circle class="st0" cx="46.01" cy="14.2" r="2.35"/>
<g class="st1">
	<circle class="st0" cx="41.24" cy="37.87" r="2.35"/>
</g>
<g class="st1">
	<circle class="st0" cx="41.46" cy="48.5" r="2.35"/>
</g>
<g class="st1">
	<circle class="st0" cx="41.24" cy="61.5" r="2.35"/>
</g>
</svg>
