<?xml version="1.0" encoding="utf-8"?>
<!-- Generator: Adobe Illustrator 24.0.1, SVG Export Plug-In . SVG Version: 6.00 Build 0)  -->
<svg version="1.1" id="_ÎÓÈ_1" xmlns="http://www.w3.org/2000/svg" xmlns:xlink="http://www.w3.org/1999/xlink" x="0px" y="0px"
	 viewBox="0 0 103.61 121.37" style="enable-background:new 0 0 103.61 121.37;" xml:space="preserve">
<style type="text/css">
	.st0{opacity:0.64;}
	.st1{fill:#F7741C;}
</style>
<title>icons_unbranded_RGB</title>
<g class="st0">
	<path class="st1" d="M83.25,40.7c-11.24-0.01-20.35-9.12-20.34-20.36S72.03-0.01,83.27,0c11.24,0.01,20.35,9.12,20.34,20.36
		c0,0,0,0.01,0,0.01C103.59,31.6,94.48,40.69,83.25,40.7z M83.25,4c-9.03,0.01-16.35,7.33-16.34,16.36
		c0.01,9.03,7.33,16.35,16.36,16.34c9.02-0.01,16.33-7.31,16.34-16.33C99.61,11.33,92.29,4.01,83.25,4z"/>
</g>
<path class="st1" d="M44.65,43.65c-1.1,0.01-2.01-0.88-2.01-1.99c0-0.54,0.21-1.05,0.59-1.43l10.54-10.51
	c0.78-0.78,2.05-0.78,2.83,0s0.78,2.05,0,2.83L46.06,43.06C45.69,43.44,45.18,43.65,44.65,43.65z"/>
<path class="st1" d="M45.27,61.98c-1.1,0-2-0.89-2-2c0-0.52,0.2-1.03,0.57-1.4l19.64-20c0.74-0.82,2-0.9,2.82-0.16
	c0.82,0.74,0.9,2,0.16,2.82c-0.04,0.05-0.09,0.09-0.14,0.14L46.7,61.37C46.32,61.76,45.81,61.98,45.27,61.98z"/>
<path class="st1" d="M61.11,62.62c-1.1,0-2-0.9-1.99-2.01c0-0.51,0.2-0.99,0.54-1.36l7.57-8c0.76-0.81,2.02-0.85,2.83-0.09
	c0.81,0.76,0.85,2.02,0.09,2.83l-7.58,8.05C62.18,62.42,61.65,62.63,61.11,62.62z"/>
<path class="st1" d="M25.62,121.37c-0.27,0-0.55-0.04-0.81-0.12c-0.93-0.32-1.68-1.01-2.09-1.9L5.41,87.37
	c-2.36-4.35-5-9.27-5.37-14.8C-0.6,62.22,6.84,55.19,14.49,52.8c9.19-2.86,18.13,0.28,22.77,8c3,5,3.46,10.69,3.91,16.23
	c0.16,3.4,0.64,6.77,1.45,10.07c1.38-2.29,2.5-4.72,3.34-7.26l0.29-0.91c1-3.07,2.09-6.55,5.31-8.32c3.78-1.93,8.41-0.44,10.35,3.34
	c0.09,0.17,0.17,0.34,0.24,0.52c0.59,1.89,0.74,3.89,0.43,5.84l-2.32,25.43c-0.01,1.69-1.15,3.16-2.78,3.58L27.13,121
	C26.65,121.22,26.14,121.34,25.62,121.37z M21.08,55.87c-1.83,0.01-3.65,0.28-5.4,0.82c-9.14,2.85-12,10.24-11.65,15.7
	c0.29,4.65,2.73,9.16,4.89,13.14l17.16,31.62l30-11.5l0.22-0.09v-0.19l2.24-24.44l0,0l0.09-1c0.22-1.33,0.16-2.69-0.18-4
	c-0.87-1.85-3.07-2.65-4.93-1.79c-1.82,1-2.64,3.56-3.43,6l-0.3,1c-1.35,4.14-3.38,8.03-6,11.51c-0.42,0.55-1.09,0.85-1.78,0.78
	c-0.69-0.07-1.29-0.49-1.6-1.11c-2.32-4.69-2.74-9.89-3.15-14.92c-0.43-5.31-0.84-10.32-3.34-14.49c-2.66-4.53-7.59-7.24-12.84-7.07
	V55.87z"/>
</svg>
