<?xml version="1.0" encoding="utf-8"?>
<!-- Generator: Adobe Illustrator 24.0.1, SVG Export Plug-In . SVG Version: 6.00 Build 0)  -->
<svg version="1.1" id="_ÎÓÈ_1" xmlns="http://www.w3.org/2000/svg" xmlns:xlink="http://www.w3.org/1999/xlink" x="0px" y="0px"
	 viewBox="0 0 78.9 92.65" style="enable-background:new 0 0 78.9 92.65;" xml:space="preserve">
<style type="text/css">
	.st0{fill:#F7741C;}
	.st1{opacity:0.69;}
</style>
<title>icons_unbranded_RGB</title>
<path class="st0" d="M76.9,92.65H2c-1.1,0-2-0.9-2-2v-8.94c0-1.1,0.9-2,2-2h74.9c1.1,0,2,0.9,2,2v8.94
	C78.9,91.75,78,92.65,76.9,92.65z M4,88.65h70.9v-4.94H4V88.65z"/>
<path class="st0" d="M70.73,83.06H8.06c-1.1,0-2-0.9-2-2v-8.95c0-1.1,0.9-2,2-2h62.67c1.1,0,2,0.9,2,2v8.95
	C72.73,82.16,71.83,83.06,70.73,83.06z M10.06,79.06h58.67v-4.95H10.06L10.06,79.06z"/>
<g class="st1">
	<path class="st0" d="M63.37,74.11H15.42c-1.1,0-2-0.89-2-2c0-0.28,0.06-0.56,0.17-0.81c8-18,12-32.82,11.92-43.89c0-1.1,0.9-2,2-2
		h27c1.1-0.01,2.01,0.88,2.01,1.99c0,0.08,0,0.16-0.01,0.24c-1.16,9.83,1.71,24.16,8.77,43.82c0.37,1.04-0.17,2.18-1.21,2.55
		c-0.22,0.08-0.45,0.12-0.68,0.12L63.37,74.11z M18.48,70.11h42.04c-6.1-17.53-8.8-30.9-8.22-40.72H29.52
		c-0.36,10.76-4.06,24.44-11,40.72L18.48,70.11z"/>
</g>
<path class="st0" d="M65.67,29.39H15.42c-1.1,0-2-0.9-2-2V2c0-1.1,0.9-2,2-2h10.36c1.1,0,2,0.9,2,2v12.51h6.88V2c0-1.1,0.9-2,2-2
	h11.28c1.1,0,2,0.9,2,2v12.51h4.46V2c0-1.1,0.9-2,2-2h9.27c1.1,0,2,0.9,2,2v25.39C67.67,28.49,66.77,29.39,65.67,29.39z
	 M17.42,25.39h46.25V4H58.4v12.51c0,1.1-0.9,2-2,2h-8.46c-1.1,0-2-0.9-2-2V4h-7.28v12.51c0,1.1-0.9,2-2,2H25.78c-1.1,0-2-0.9-2-2V4
	h-6.36L17.42,25.39z"/>
</svg>
