<?xml version="1.0" encoding="utf-8"?>
<!-- Generator: Adobe Illustrator 24.0.1, SVG Export Plug-In . SVG Version: 6.00 Build 0)  -->
<svg version="1.1" id="_ÎÓÈ_1" xmlns="http://www.w3.org/2000/svg" xmlns:xlink="http://www.w3.org/1999/xlink" x="0px" y="0px"
	 viewBox="0 0 160.6 56.08" style="enable-background:new 0 0 160.6 56.08;" xml:space="preserve">
<style type="text/css">
	.st0{fill:#F7741C;}
	.st1{opacity:0.7;}
</style>
<title>icons_unbranded_RGB</title>
<path class="st0" d="M91.73,46.13c-4.23,0-8.18,0-11.78,0c-1.1,0-2-0.9-2-2s0.9-2,2-2l0,0c11.16,0,25.73,0,41.15,0h4.13
	c1.1,0,2,0.9,2,2s-0.9,2-2,2h-4.13C110.67,46.11,100.61,46.13,91.73,46.13z"/>
<path class="st0" d="M57.39,46.08h-1.61c-0.67,0-1.4,0-2.23,0c-2.15-0.01-4.2-0.86-5.73-2.37c-1.52-1.52-2.38-3.59-2.37-5.74v-7.45
	c0.01-4.47,3.63-8.09,8.1-8.1h98.94c4.48,0,8.1,3.62,8.11,8.1v7.39c-0.01,4.48-3.63,8.1-8.11,8.11h-7.1c-1.1,0-2-0.9-2-2s0.9-2,2-2
	h7.17c2.27,0,4.11-1.84,4.11-4.11l0,0v-7.39c-0.01-2.27-1.84-4.1-4.11-4.1h-99c-2.26,0.01-4.09,1.84-4.1,4.1v7.39
	c0,1.09,0.43,2.14,1.2,2.91c0.78,0.76,1.82,1.18,2.9,1.2c0.86,0,1.63,0,2.32,0c0.92,0.05,1.85,0.05,2.77,0
	c1.1-0.11,2.09,0.7,2.19,1.81s-0.7,2.09-1.81,2.19C58.53,46.06,57.98,46.08,57.39,46.08z"/>
<path class="st0" d="M91.07,26.42H54.49c-1.1,0-2-0.89-2-2c0-0.25,0.04-0.49,0.13-0.72l3.06-8C59.33,6.27,68.39,0.04,78.5,0h12.57
	c1.1,0,2,0.9,2,2v22.4c0.01,1.1-0.88,2.01-1.98,2.02C91.08,26.42,91.08,26.42,91.07,26.42z M57.39,22.42h31.68V4.02H78.5
	c-8.47,0.02-16.05,5.23-19.11,13.13L57.39,22.42z"/>
<path class="st0" d="M146.94,26.42H91.07c-1.1,0-2-0.9-2-2V2.02c0-1.1,0.9-2,2-2h16.32c5.08-0.01,10.04,1.54,14.22,4.43l26.48,18.32
	c0.91,0.62,1.14,1.87,0.52,2.78C148.23,26.1,147.61,26.42,146.94,26.42L146.94,26.42z M93.07,22.42h47.46L119.32,7.74
	c-3.5-2.43-7.67-3.73-11.93-3.72H93.07L93.07,22.42z"/>
<path class="st0" d="M68.94,56.08c-6.53,0-11.82-5.29-11.82-11.82s5.29-11.82,11.82-11.82s11.82,5.29,11.82,11.82
	C80.75,50.79,75.47,56.07,68.94,56.08z M68.94,36.44c-4.32,0-7.82,3.5-7.82,7.82c0,4.32,3.5,7.82,7.82,7.82
	c4.32,0,7.82-3.5,7.82-7.82l0,0C76.76,39.94,73.26,36.44,68.94,36.44z"/>
<path class="st0" d="M135.39,56.08c-6.53,0-11.82-5.29-11.82-11.82s5.29-11.82,11.82-11.82s11.82,5.29,11.82,11.82
	C147.2,50.79,141.92,56.07,135.39,56.08z M135.39,36.44c-4.32,0-7.82,3.5-7.82,7.82s3.5,7.82,7.82,7.82c4.32,0,7.82-3.5,7.82-7.82
	C143.21,39.94,139.71,36.44,135.39,36.44L135.39,36.44z"/>
<g class="st1">
	<path class="st0" d="M135.39,49.96c-3.15,0-5.7-2.55-5.7-5.7s2.55-5.7,5.7-5.7c3.15,0,5.7,2.55,5.7,5.7v0
		C141.09,47.41,138.54,49.96,135.39,49.96z M135.39,42.56c-0.94,0-1.7,0.76-1.7,1.7c0,0.94,0.76,1.7,1.7,1.7
		c0.94,0,1.7-0.76,1.7-1.7v0c-0.02-0.93-0.77-1.67-1.7-1.67V42.56z"/>
</g>
<g class="st1">
	<path class="st0" d="M68.94,49.96c-3.15,0-5.7-2.55-5.7-5.7s2.55-5.7,5.7-5.7c3.15,0,5.7,2.55,5.7,5.7v0
		C74.64,47.41,72.09,49.96,68.94,49.96z M68.94,42.56c-0.94,0-1.7,0.76-1.7,1.7s0.76,1.7,1.7,1.7c0.94,0,1.7-0.76,1.7-1.7v0
		c-0.02-0.93-0.77-1.67-1.7-1.67V42.56z"/>
</g>
<g class="st1">
	<path class="st0" d="M41.62,13.17H27.04c-1.1,0-2-0.9-2-2s0.9-2,2-2h14.58c1.1,0,2,0.9,2,2S42.72,13.17,41.62,13.17z"/>
</g>
<g class="st1">
	<path class="st0" d="M39.72,24.91H2c-1.1,0-2-0.9-2-2s0.9-2,2-2h37.72c1.1,0,2,0.9,2,2S40.82,24.91,39.72,24.91z"/>
</g>
<g class="st1">
	<path class="st0" d="M34.33,36.92H15.95c-1.1,0-2-0.9-2-2s0.9-2,2-2h18.38c1.1,0,2,0.9,2,2S35.43,36.92,34.33,36.92z"/>
</g>
</svg>
