<?xml version="1.0" encoding="utf-8"?>
<!-- Generator: Adobe Illustrator 24.0.1, SVG Export Plug-In . SVG Version: 6.00 Build 0)  -->
<svg version="1.1" id="_ÎÓÈ_1" xmlns="http://www.w3.org/2000/svg" xmlns:xlink="http://www.w3.org/1999/xlink" x="0px" y="0px"
	 viewBox="0 0 118.04 124.86" style="enable-background:new 0 0 118.04 124.86;" xml:space="preserve">
<style type="text/css">
	.st0{fill:#F7741C;}
	.st1{opacity:0.7;}
	.st2{opacity:0.6;}
</style>
<title>icons_unbranded_RGB</title>
<path class="st0" d="M90.53,124.86H28.07c-1.66-0.02-2.98-1.38-2.96-3.04c0-0.1,0.01-0.21,0.02-0.31l0,0l11.3-85.95l-6.33-6.67
	c-0.52-0.54-0.81-1.25-0.82-2V16.4c0-1.66,1.34-3,3-3h5.57c1.66,0,3,1.34,3,3v6.89h3.58l0.31-7c0.09-1.59,1.4-2.84,3-2.84h6.69
	c1.66,0,3,1.34,3,3v6.89h2.78V16.4c0-1.66,1.34-3,3-3h6.4c1.66,0,3,1.34,3,3v6.89h3.76V16.4c0-1.66,1.34-3,3-3h5.65
	c1.66,0,3,1.34,3,3V25c0,0.57-0.17,1.13-0.47,1.61l-5.59,8.7l11.47,86.18c0.2,1.64-0.96,3.14-2.61,3.35
	c-0.11,0.01-0.22,0.02-0.33,0.02H90.53z M29.25,120.86h60.1L77.79,35.47c-0.1-0.7,0.06-1.41,0.44-2l5.63-8.77v-7.27h-3.59v6.89
	c0,1.66-1.34,3-3,3h-5.82c-1.66,0-3-1.34-3-3v-6.89h-4.33v6.89c0,1.66-1.34,3-3,3h-4.75c-1.66,0-3-1.34-3-3v-6.89h-4.69l-0.31,7
	c-0.09,1.59-1.4,2.84-3,2.84h-5.63c-1.66,0-3-1.34-3-3v-6.84h-3.48v9l6.39,6.74c0.62,0.65,0.9,1.54,0.78,2.43L29.25,120.86z"/>
<g class="st1">
	<path class="st0" d="M70.57,77.61H48.04V58.78c-0.08-0.55-0.12-1.11-0.12-1.67c0-6.29,5.1-11.38,11.38-11.38
		c6.29,0,11.38,5.1,11.38,11.38c0,0.55-0.04,1.09-0.11,1.63V77.61z M52.04,73.61h14.53V58.25c0.06-0.38,0.09-0.77,0.09-1.16
		c0-4.08-3.3-7.38-7.38-7.38c-4.08,0-7.38,3.3-7.38,7.38c0,0.4,0.03,0.8,0.1,1.2v0.32L52.04,73.61z"/>
</g>
<g class="st2">
	<path class="st0" d="M24.08,113.12H2c-1.1,0-2-0.9-2-2V75.88c0.01-2.11,1.71-3.81,3.82-3.82h7c2.11,0.01,3.81,1.71,3.82,3.82v0.81
		h2.58v-1.24c0-2.11,1.7-3.81,3.81-3.82h4.69c2.11,0,3.82,1.71,3.82,3.82v3.93c0,1.1-0.9,2-2,2s-2-0.9-2-2v-3.75h-4.35v1.24
		c-0.01,2.11-1.71,3.81-3.82,3.82h-2.94c-2.11-0.01-3.81-1.71-3.81-3.82v-0.81H4v33.06h20.08c1.1,0,2,0.9,2,2
		S25.18,113.12,24.08,113.12z"/>
</g>
<g class="st2">
	<path class="st0" d="M116.04,112.07H94.81c-1.1,0-2-0.9-2-2s0.9-2,2-2h19.23v-32h-6.36v0.72c-0.01,2.08-1.69,3.76-3.77,3.76h-2.88
		c-2.08,0-3.77-1.68-3.78-3.76v-1.11h-4.12v3.58c0,1.1-0.9,2-2,2s-2-0.9-2-2v-3.81c0-2.08,1.69-3.77,3.77-3.77l0,0h4.58
		c2.08,0,3.77,1.69,3.77,3.77l0,0v1.14h2.43v-0.72c0-2.08,1.68-3.76,3.76-3.76c0,0,0.01,0,0.01,0h6.81
		c2.08-0.01,3.77,1.68,3.78,3.76c0,0,0,0,0,0v34.2C118.04,111.17,117.14,112.07,116.04,112.07z"/>
</g>
<g class="st1">
	<path class="st0" d="M48.64,14.83c-1.1,0-2-0.9-2-2V4.98c-2.77,0.84-7,1.37-10.61-1.38c-0.82-0.74-0.88-2.01-0.14-2.82
		c0.65-0.72,1.72-0.87,2.54-0.36c3.72,2.84,9.15-0.12,9.2-0.15c0.96-0.55,2.18-0.22,2.73,0.73c0.18,0.31,0.27,0.65,0.27,1.01v10.82
		C50.63,13.93,49.74,14.82,48.64,14.83z"/>
</g>
</svg>
