<?xml version="1.0" encoding="utf-8"?>
<!-- Generator: Adobe Illustrator 24.0.1, SVG Export Plug-In . SVG Version: 6.00 Build 0)  -->
<svg version="1.1" id="_ÎÓÈ_1" xmlns="http://www.w3.org/2000/svg" xmlns:xlink="http://www.w3.org/1999/xlink" x="0px" y="0px"
	 viewBox="0 0 88.65 98.94" style="enable-background:new 0 0 88.65 98.94;" xml:space="preserve">
<style type="text/css">
	.st0{fill:#F7741C;}
	.st1{opacity:0.65;}
	.st2{opacity:0.64;}
</style>
<title>icons_unbranded_RGB</title>
<path class="st0" d="M79.01,98.94H11.34c-5.34,0-9.69-4.74-9.69-10.58V37.02h87v51.34C88.65,94.2,84.35,98.94,79.01,98.94z
	 M5.65,41.02v47.34c0,3.63,2.55,6.58,5.69,6.58h67.67c3.13,0,5.68-3,5.68-6.58V41.02H5.65z"/>
<path class="st0" d="M2.04,38.58l-1.53-5.44c-1.98-6.9,2.01-14.1,8.91-16.08c0.03-0.01,0.06-0.02,0.09-0.03L68.15,0.5
	c6.93-1.96,14.15,2.07,16.11,9l1.54,5.45L2.04,38.58z M71.73,4c-0.84,0-1.67,0.12-2.47,0.35l0,0L10.65,20.88
	c-4.79,1.32-7.61,6.27-6.29,11.07c0.01,0.03,0.02,0.07,0.03,0.1l0.45,1.6L80.91,12.2l-0.45-1.59c-1.1-3.9-4.65-6.6-8.7-6.61L71.73,4
	z"/>
<g class="st1">
	
		<rect x="63.09" y="1.31" transform="matrix(0.5451 -0.8384 0.8384 0.5451 20.3051 59.6164)" class="st0" width="4" height="19.57"/>
</g>
<g class="st1">
	<rect x="44.15" y="6.66" transform="matrix(0.5462 -0.8376 0.8376 0.5462 7.1777 46.113)" class="st0" width="4" height="19.54"/>
</g>
<g class="st1">
	
		<rect x="25.31" y="11.91" transform="matrix(0.5404 -0.8414 0.8414 0.5404 -5.7346 32.972)" class="st0" width="4" height="19.66"/>
</g>
<rect x="3.65" y="49.17" class="st0" width="83.04" height="4"/>
<rect x="15.83" y="43.08" transform="matrix(0.5627 -0.8267 0.8267 0.5627 -27.1309 38.8797)" class="st0" width="14.7" height="4"/>
<rect x="39.46" y="43.78" transform="matrix(0.5708 -0.8211 0.8211 0.5708 -17.4886 58.0954)" class="st0" width="14.73" height="3.99"/>
<rect x="59.86" y="43.11" transform="matrix(0.5352 -0.8447 0.8447 0.5352 -6.9449 77.6004)" class="st0" width="14.38" height="4"/>
<g class="st2">
	<path class="st0" d="M66.65,69.98h-42c-1.1,0-2-0.9-2-2s0.9-2,2-2h42c1.1,0,2,0.9,2,2S67.75,69.98,66.65,69.98z"/>
</g>
<g class="st2">
	<path class="st0" d="M66.65,84.01h-42c-1.1,0-2-0.9-2-2s0.9-2,2-2h42c1.1,0,2,0.9,2,2S67.75,84.01,66.65,84.01z"/>
</g>
</svg>
