<?xml version="1.0" encoding="utf-8"?>
<!-- Generator: Adobe Illustrator 24.0.1, SVG Export Plug-In . SVG Version: 6.00 Build 0)  -->
<svg version="1.1" id="_ÎÓÈ_1" xmlns="http://www.w3.org/2000/svg" xmlns:xlink="http://www.w3.org/1999/xlink" x="0px" y="0px"
	 viewBox="0 0 83.57 110.91" style="enable-background:new 0 0 83.57 110.91;" xml:space="preserve">
<style type="text/css">
	.st0{fill:#F7741C;}
	.st1{opacity:0.66;}
	.st2{opacity:0.65;}
</style>
<title>icons_unbranded_RGB</title>
<path class="st0" d="M57.27,52.57c-11.7-0.05-21.96-7.83-25.15-19.09c-0.06-0.21-0.11-0.39-0.15-0.57
	c-1.72-6.69-0.69-13.79,2.85-19.72c0.27-0.46,0.72-0.78,1.24-0.89c0.51-0.12,1.04-0.03,1.49,0.24l40.77,25.82
	c0.91,0.58,1.17,1.79,0.59,2.69c-0.01,0.01-0.02,0.02-0.02,0.04c-3.57,5.3-8.97,9.1-15.16,10.67c-1.12,0.29-2.25,0.5-3.4,0.63
	C59.32,52.52,58.29,52.58,57.27,52.57z M37.21,16.94c-2.24,4.67-2.76,9.98-1.47,15c0,0.14,0.07,0.26,0.1,0.37
	c3.23,11.82,15.44,18.78,27.26,15.55c4.46-1.22,8.43-3.8,11.35-7.39L37.21,16.94z"/>
<path class="st0" d="M77.25,41.94c-0.35-0.01-0.7-0.11-1-0.3l-40.8-25.82c-0.89-0.56-1.17-1.73-0.63-2.63
	c7.12-12.52,23.04-16.9,35.56-9.78s16.9,23.04,9.78,35.56c-0.41,0.73-0.86,1.43-1.34,2.11C78.47,41.61,77.88,41.93,77.25,41.94z
	 M39.18,13.59l37.45,23.73c0.6-1.07,1.11-2.19,1.53-3.35l0,0c4.13-11.55-1.88-24.26-13.43-28.39c-9.36-3.35-19.8-0.07-25.57,8.02
	L39.18,13.59z"/>
<path class="st0" d="M17.64,106.3c-0.36-0.01-0.7-0.12-1-0.31L0.89,95.92c-0.84-0.54-1.13-1.64-0.67-2.53l32.05-61.33
	c0.49-0.95,1.66-1.33,2.61-0.83c0.48,0.25,0.83,0.68,0.98,1.19c2.97,10.52,13.14,17.34,24,16.1c1.07-0.12,2.03,0.65,2.15,1.72
	c0.06,0.5-0.09,1.01-0.39,1.41l-42.46,53.91C18.8,106.03,18.24,106.31,17.64,106.3z M4.48,93.61l12.73,8.17l38.77-49.24
	c-9.57-0.52-18.11-6.21-22.28-14.84L4.48,93.61z"/>
<g class="st1">
	<path class="st0" d="M4.54,110.91c-0.43,0-0.85-0.12-1.21-0.36c-1.04-0.65-1.36-2.03-0.71-3.07c0.01-0.02,0.02-0.04,0.04-0.06
		l6.75-10.43c0.71-1.01,2.11-1.26,3.12-0.55c0.96,0.67,1.24,1.97,0.64,2.98l-6.75,10.43C6.02,110.51,5.31,110.91,4.54,110.91z"/>
</g>
<g class="st2">
	<path class="st0" d="M32.15,70.85c-0.35-0.01-0.7-0.11-1-0.3l-4.26-2.72c-0.88-0.59-1.14-1.77-0.6-2.68l7.56-11.86
		c0.57-0.9,1.76-1.17,2.66-0.59c0,0,0,0,0.01,0l4.23,2.72c0.44,0.27,0.74,0.71,0.85,1.21c0.12,0.5,0.03,1.03-0.25,1.46l-7.56,11.86
		C33.44,70.51,32.82,70.85,32.15,70.85z M30.57,65.6l1,0.63l5.49-8.58l-1-0.64L30.57,65.6z"/>
</g>
</svg>
