<?xml version="1.0" encoding="utf-8"?>
<!-- Generator: Adobe Illustrator 24.0.1, SVG Export Plug-In . SVG Version: 6.00 Build 0)  -->
<svg version="1.1" id="_ÎÓÈ_1" xmlns="http://www.w3.org/2000/svg" xmlns:xlink="http://www.w3.org/1999/xlink" x="0px" y="0px"
	 viewBox="0 0 94.08 94.06" style="enable-background:new 0 0 94.08 94.06;" xml:space="preserve">
<style type="text/css">
	.st0{fill:#F7741C;}
	.st1{opacity:0.7;}
</style>
<title>icons_unbranded_RGB</title>
<path class="st0" d="M47.08,94.05c-25.96,0-47-21.04-47-47s21.04-47,47-47s47,21.04,47,47v0C94.08,73.01,73.03,94.05,47.08,94.05z
	 M47.08,4.11c-23.75,0-43,19.25-43,43s19.25,43,43,43s43-19.25,43-43l0,0C90.08,23.37,70.82,4.11,47.08,4.11z"/>
<path class="st0" d="M47.08,94.06c-0.8,0-1.52-0.48-1.83-1.21c-12.73-29.42-12.73-60.2,0-91.49c0.35-1.05,1.49-1.61,2.53-1.26
	c1.05,0.35,1.61,1.49,1.26,2.53c-0.03,0.08-0.06,0.15-0.09,0.23c-12.29,30.26-12.3,60,0,88.4c0.44,1,0,2.18-1,2.63
	C47.67,94.01,47.37,94.07,47.08,94.06z"/>
<g class="st1">
	<path class="st0" d="M78.54,78.23c-0.31,0-0.61-0.07-0.89-0.21c-14.12-7-21.92-15.51-23.19-25.21
		c-1.53-11.59,5.91-24.47,22.75-39.36c0.83-0.73,2.09-0.65,2.82,0.18s0.65,2.09-0.18,2.82l0,0C64.31,30.2,57.1,42.25,58.42,52.29
		c1.09,8.3,8.16,15.75,21,22.15c0.99,0.49,1.39,1.69,0.9,2.68c-0.34,0.68-1.03,1.11-1.79,1.11L78.54,78.23z"/>
</g>
<g class="st1">
	<path class="st0" d="M16.43,79.72c-0.23,0-0.46-0.04-0.67-0.12c-1.04-0.37-1.59-1.51-1.22-2.55c5.65-15.84,5.63-36.08-0.06-60.15
		c-0.21-1.08,0.49-2.14,1.57-2.35c1.03-0.2,2.04,0.42,2.32,1.43c5.87,24.84,5.85,45.83-0.06,62.41
		C18.02,79.19,17.27,79.72,16.43,79.72z"/>
</g>
<path class="st0" d="M40.14,58.3c-15.29,0-28.23-3.17-39-9.49c-1-0.48-1.42-1.67-0.94-2.67c0.48-1,1.67-1.42,2.67-0.94
	c0.09,0.05,0.18,0.1,0.27,0.16c20.5,12,49.4,11.92,88.34-0.19c1.05-0.33,2.18,0.26,2.51,1.31c0.33,1.05-0.26,2.18-1.32,2.51
	C72.71,55.19,55.27,58.3,40.14,58.3z"/>
</svg>
