<?xml version="1.0" encoding="utf-8"?>
<!-- Generator: Adobe Illustrator 24.0.1, SVG Export Plug-In . SVG Version: 6.00 Build 0)  -->
<svg version="1.1" id="_ÎÓÈ_1" xmlns="http://www.w3.org/2000/svg" xmlns:xlink="http://www.w3.org/1999/xlink" x="0px" y="0px"
	 viewBox="0 0 96.55 80.61" style="enable-background:new 0 0 96.55 80.61;" xml:space="preserve">
<style type="text/css">
	.st0{fill:#F7741C;}
	.st1{opacity:0.64;}
</style>
<title>icons_unbranded_RGB</title>
<path class="st0" d="M76.54,80.61H20.9c-1.1,0-2-0.9-2-2V29.3l-5.72,4.14c-0.89,0.65-2.13,0.46-2.79-0.42l-10-13.36
	c-0.33-0.45-0.46-1.01-0.36-1.56c0.1-0.55,0.43-1.03,0.91-1.33L27.6,0.3C27.92,0.1,28.28,0,28.65,0h3.33c1.1,0,2,0.9,2,2
	c0,8.14,6.6,14.74,14.74,14.74S63.46,10.14,63.46,2c0-1.1,0.9-2,2-2h2.79c0.35,0.01,0.7,0.11,1,0.3l26.36,16.34
	c0.5,0.31,0.84,0.83,0.92,1.42c0.08,0.59-0.1,1.19-0.5,1.63L85.39,31.44c-0.63,0.69-1.66,0.85-2.47,0.39l-6.44-3.68l2.09,50.42
	c0.02,0.54-0.17,1.08-0.55,1.47C77.63,80.43,77.09,80.63,76.54,80.61z M22.9,76.61h51.55l-2.16-51.95c-0.05-1.1,0.81-2.04,1.91-2.09
	c0.38-0.02,0.76,0.08,1.09,0.27l8.19,4.68l8-8.75L67.68,4h-0.29C66.3,14.29,57.07,21.75,46.78,20.65C38,19.72,31.06,12.78,30.12,4
	h-0.86L4.99,19l7.48,10l7.3-5.29c0.9-0.65,2.15-0.44,2.79,0.45c0.25,0.34,0.38,0.75,0.38,1.17L22.9,76.61z"/>
<g class="st1">
	<path class="st0" d="M48.29,12.32c-0.47,0-0.94,0-1.41,0c-10-0.71-16.23-8.71-16.49-9c-0.67-0.88-0.51-2.13,0.36-2.81
		c0.88-0.67,2.13-0.51,2.8,0.37l0,0c0.06,0.07,5.47,6.94,13.64,7.5c5.56,0.38,11.24-2.21,16.86-7.71c0.79-0.77,2.06-0.76,2.83,0.03
		s0.76,2.06-0.03,2.83C60.82,9.33,54.59,12.32,48.29,12.32z"/>
</g>
</svg>
