<?xml version="1.0" encoding="utf-8"?>
<!-- Generator: Adobe Illustrator 24.0.1, SVG Export Plug-In . SVG Version: 6.00 Build 0)  -->
<svg version="1.1" id="_ÎÓÈ_1" xmlns="http://www.w3.org/2000/svg" xmlns:xlink="http://www.w3.org/1999/xlink" x="0px" y="0px"
	 viewBox="0 0 114.11 126.86" style="enable-background:new 0 0 114.11 126.86;" xml:space="preserve">
<style type="text/css">
	.st0{fill:#F7741C;}
	.st1{opacity:0.58;}
	.st2{opacity:0.69;}
</style>
<title>icons_unbranded_RGB</title>
<path class="st0" d="M59.05,25.26c-6.98,0-12.63-5.65-12.63-12.63S52.07,0,59.05,0c6.98,0,12.63,5.65,12.63,12.63c0,0,0,0.01,0,0.01
	C71.67,19.61,66.02,25.26,59.05,25.26z M59.05,4.01c-4.77,0-8.63,3.86-8.63,8.63s3.86,8.63,8.63,8.63c4.77,0,8.63-3.86,8.63-8.63
	l0,0C67.67,7.88,63.81,4.02,59.05,4.01z"/>
<path class="st0" d="M60.63,126.85c-0.19,0.01-0.38,0.01-0.57,0c-2.92-0.34-4.81-3.3-6.06-5.26l-0.3-0.46l-8.54-13.11
	c-1.46-1.99-2.56-4.22-3.26-6.59c-0.8-3.25-0.16-6.48,0.4-9.34l2.51-12.81c0.48-2.11,0.81-4.24,1-6.39
	c0.08-2.22,0.01-4.45-0.21-6.66l-0.2-1.5c-0.5-7.11-0.36-14.28-0.18-21.26c-6.34-1.82-12.48-4.26-18.34-7.3
	c-1.63-0.73-3.08-1.82-4.23-3.19c-0.9-1.33-1.54-2.82-1.87-4.39c-1.27-4.72-2.49-9.52-3.63-14.27S17,5.95,19.91,4.63
	C22.52,3.44,25.45,4.77,27,6.7c1.21,1.68,2.03,3.6,2.4,5.63l2.39,10c0.13,0.84,0.41,1.66,0.83,2.4c0.82,0.9,1.85,1.58,3,2l0.93,0.45
	c4.19,2.28,9,3.11,13.71,2.39c0.78-0.14,1.56-0.3,2.34-0.46c4.8-1,9.76-2,14.8-0.9c6,1.29,11.16,4.47,15.75,7.27l0.12,0.07
	c1.33,0.82,2.57,1.59,3.73,1.53c0.86-0.13,1.7-0.41,2.46-0.84l9.19-4.35c1.87-1.04,3.96-1.65,6.1-1.77c2.58,0,5.51,1.58,6.12,4.5
	c0.12,0.52,0.15,1.05,0.1,1.58l-2-0.2l2,0.2c-0.25,2.54-2.38,4.78-6.16,6.48l-13.32,6c-1.6,0.86-3.39,1.33-5.21,1.36
	c-1.8-0.18-3.54-0.79-5.06-1.78l-9.26-5.12c-0.26,15.34,0.65,30.67,2.75,45.87c0.08,1.22,0.38,2.41,0.9,3.51
	c0.82,1.18,1.87,2.17,3.08,2.94l0.13,0.1c3.24,2.41,6.4,5,9.4,7.7c1.68,1.32,3.01,3.04,3.85,5c0.84,2.41,0.31,5.75-2.35,7.2
	c-3.4,1.85-7-1-8.22-1.88c-4.15-3.2-8.29-6.53-12.31-9.89c-1.85-1.42-3.47-3.1-4.82-5c-2.5-3.89-2.53-8.38-2.57-12.72
	c0.02-2.09-0.11-4.17-0.4-6.24c-1.34,0.26-2.71,0.36-4.07,0.28l-2.7,14.65c-0.31,1.25-0.41,2.55-0.3,3.83
	c0.45,1.61,1.24,3.11,2.31,4.39l0.06,0.09c2.61,3.69,5.11,7.54,7.43,11.42c1.23,2,2.41,4.27,2.23,6.85
	c-0.16,1.71-0.99,3.28-2.32,4.36C63.08,126.4,61.88,126.84,60.63,126.85z M22.05,8.14c-0.15,0-0.3,0.03-0.44,0.09
	c-1.17,0.53-1,3.09-0.53,5.11c1.13,4.72,2.35,9.49,3.6,14.17c0.22,1.06,0.62,2.08,1.2,3c0.81,0.86,1.79,1.54,2.88,2
	c6.07,3.15,12.46,5.63,19.06,7.41c0.9,0.24,1.51,1.07,1.48,2c-0.19,7.37-0.39,15,0.13,22.43l0.12,1.49c0.23,2.4,0.31,4.8,0.22,7.21
	c-0.18,2.33-0.51,4.64-1,6.92l-2.55,12.86c-0.5,2.57-1,5.23-0.44,7.63c0.61,1.92,1.53,3.73,2.73,5.35l8.89,13.6
	c0.69,1.08,2.12,3.32,3.16,3.44c0.37,0.01,0.73-0.13,1-0.38c0.48-0.39,0.79-0.95,0.88-1.56c0.1-1.42-0.73-3-1.67-4.52
	c-2.27-3.8-4.71-7.55-7.26-11.16l-0.07-0.09c-1.44-1.75-2.46-3.8-3-6c-0.21-1.75-0.11-3.52,0.3-5.23l3.05-16.49
	c0.2-1.09,1.24-1.81,2.32-1.61c0,0,0,0,0.01,0c2.07,0.38,4.2,0.22,6.18-0.47c0.52-0.18,1.09-0.13,1.57,0.12
	c0.49,0.25,0.85,0.69,1,1.22c0.73,3.02,1.04,6.12,0.92,9.22c0,4,0.06,7.67,1.94,10.6c1.12,1.56,2.47,2.94,4,4.1
	c4,3.33,8.08,6.63,12.18,9.8c2.28,1.76,3.36,1.8,3.87,1.52c0.65-0.6,0.84-1.54,0.48-2.35c-0.63-1.34-1.58-2.5-2.75-3.4
	c-2.91-2.62-6-5.13-9.11-7.46l-0.13-0.1c-1.68-1.08-3.1-2.51-4.18-4.19c-0.77-1.54-1.24-3.21-1.38-4.93
	C68.58,74,67.65,58.37,67.93,42.73c0-1.93,0.71-3.2,2-3.78c1.19-0.43,2.51-0.27,3.56,0.43l9.63,5.32c0.99,0.66,2.12,1.1,3.3,1.28
	c1.19-0.08,2.35-0.42,3.39-1l13.32-6c2.27-1,3.73-2.25,3.82-3.22c0.02-0.12,0.02-0.24,0-0.36c-0.4-0.87-1.29-1.4-2.24-1.33l0,0
	c-1.52,0.15-2.99,0.62-4.32,1.38l-9.25,4.28c-1.23,0.68-2.6,1.1-4,1.23c-2.38,0.1-4.39-1.13-6-2.12l-0.11-0.07
	c-4.32-2.64-9.21-5.63-14.52-6.77c-4.21-0.91-8.76,0-13.15,0.91l-2.39,0.47c-5.58,0.89-11.29-0.08-16.27-2.75l-0.84-0.41
	c-1.74-0.66-3.28-1.77-4.46-3.21c-0.73-1.13-1.23-2.4-1.47-3.73l-2.39-10c-0.23-1.46-0.77-2.86-1.58-4.1
	C23.5,8.57,22.81,8.19,22.05,8.14z"/>
<g class="st1">
	<path class="st0" d="M100.7,84.8c-2.83,0-5.13-2.3-5.13-5.13c0-2.83,2.3-5.13,5.13-5.13c2.83,0,5.13,2.3,5.13,5.13
		S103.53,84.8,100.7,84.8L100.7,84.8z M100.7,78.54c-0.62,0-1.13,0.51-1.13,1.13c0,0.62,0.51,1.13,1.13,1.13
		c0.62,0,1.13-0.51,1.13-1.13C101.82,79.05,101.32,78.55,100.7,78.54z"/>
</g>
<g class="st1">
	<path class="st0" d="M103.83,81.67h-0.16c-1.1-0.09-1.92-1.05-1.83-2.15l1.56-19.62c0.08-1.1,1.05-1.93,2.15-1.84
		c0.36,0.03,0.71,0.15,1,0.36c0.72,0.51,7,5.12,7.55,10.6c0.11,1.1-0.7,2.09-1.8,2.19c-1.1,0.11-2.09-0.7-2.2-1.81
		c-0.17-1.79-1.58-3.71-3-5.23l-1.22,15.64C105.8,80.89,104.9,81.7,103.83,81.67z"/>
</g>
<g class="st2">
	<path class="st0" d="M4.68,75.73C2.08,75.72-0.01,73.6,0,71.01c0.01-1.38,0.62-2.69,1.68-3.58l0,0c0.95-0.81,2.19-1.19,3.43-1.08
		c1.24,0.12,2.39,0.72,3.19,1.67c1.66,1.99,1.39,4.96-0.6,6.62C6.85,75.35,5.78,75.73,4.68,75.73z M4.23,70.5
		c-0.28,0.26-0.3,0.71-0.03,0.99c0.24,0.26,0.65,0.3,0.93,0.08c0.14-0.12,0.23-0.29,0.25-0.48c0.01-0.18-0.05-0.36-0.16-0.5
		c-0.12-0.14-0.29-0.23-0.48-0.25C4.55,70.33,4.37,70.38,4.23,70.5z"/>
</g>
<g class="st2">
	<path class="st0" d="M19.7,83.53c-2.61,0-4.72-2.11-4.72-4.72c0-1.63,0.84-3.14,2.21-4l0,0c2.21-1.38,5.12-0.71,6.51,1.49
		c1.38,2.21,0.71,5.12-1.49,6.51C21.45,83.28,20.58,83.53,19.7,83.53z M19.31,78.2c-0.34,0.21-0.43,0.66-0.22,0.99
		c0.21,0.34,0.66,0.43,0.99,0.22c0.33-0.21,0.43-0.65,0.23-0.98c-0.1-0.16-0.26-0.28-0.45-0.32C19.67,78.07,19.48,78.1,19.31,78.2
		L19.31,78.2z"/>
</g>
<g class="st2">
	<path class="st0" d="M22.15,82.18c-0.49,0-0.96-0.18-1.33-0.5c-0.83-0.73-0.9-2-0.17-2.82c0,0,0,0,0.01-0.01L32.4,65.61l-10.3-6.76
		L8.76,73.33c-0.73,0.83-1.99,0.92-2.82,0.19s-0.92-1.99-0.19-2.82c0.02-0.03,0.05-0.06,0.08-0.08l14.49-15.73
		c0.66-0.72,1.74-0.85,2.56-0.32l13.67,9c0.49,0.32,0.81,0.83,0.89,1.4c0.07,0.58-0.11,1.16-0.49,1.6l-13.29,15
		C23.26,81.98,22.71,82.2,22.15,82.18z"/>
</g>
<g class="st2">
	<path class="st0" d="M32.15,70.92c-0.4,0-0.78-0.12-1.11-0.34L17.4,61.46c-0.95-0.56-1.27-1.79-0.7-2.74s1.79-1.27,2.74-0.7
		c0.06,0.04,0.13,0.08,0.18,0.12l13.65,9.11c0.92,0.61,1.18,1.85,0.57,2.77c-0.37,0.56-1,0.9-1.68,0.9H32.15z"/>
</g>
</svg>
