<?xml version="1.0" encoding="utf-8"?>
<!-- Generator: Adobe Illustrator 24.0.1, SVG Export Plug-In . SVG Version: 6.00 Build 0)  -->
<svg version="1.1" id="_ÎÓÈ_1" xmlns="http://www.w3.org/2000/svg" xmlns:xlink="http://www.w3.org/1999/xlink" x="0px" y="0px"
	 viewBox="0 0 112.83 90.46" style="enable-background:new 0 0 112.83 90.46;" xml:space="preserve">
<style type="text/css">
	.st0{fill:#F7741C;}
	.st1{opacity:0.7;}
</style>
<title>icons_unbranded_RGB</title>
<path class="st0" d="M101.75,72.16c-0.68,0-1.32-0.34-1.69-0.91L67.25,20.43L41.43,59.9c-0.6,0.92-1.84,1.18-2.77,0.58
	c-0.16-0.1-0.3-0.23-0.42-0.37L24.36,43.9L3.67,71.36c-0.61,0.92-1.85,1.18-2.77,0.57c-0.92-0.61-1.18-1.85-0.57-2.77
	c0.05-0.07,0.1-0.14,0.15-0.2l22.18-29.45c0.36-0.49,0.93-0.78,1.54-0.8c0.61-0.02,1.19,0.24,1.58,0.7l13.76,16.07l26.05-39.81
	c0.37-0.57,1-0.91,1.67-0.91l0,0c0.68,0,1.3,0.35,1.67,0.92l34.48,53.4c0.6,0.93,0.33,2.16-0.59,2.76
	C102.5,72.05,102.13,72.16,101.75,72.16z"/>
<g class="st1">
	<path class="st0" d="M64.1,39.51c-0.49,0-0.96-0.18-1.32-0.5l-4.39-3.86c-0.83-0.73-0.91-2-0.17-2.82c0.73-0.83,2-0.91,2.82-0.18
		l2.84,2.5l1.91-2.29c0.35-0.42,0.85-0.67,1.39-0.71c0.54-0.03,1.07,0.15,1.48,0.51l2.76,2.47l1.9-2.27
		c0.72-0.84,1.99-0.94,2.82-0.21c0.84,0.72,0.94,1.99,0.22,2.82l0,0l-3.26,3.82c-0.35,0.42-0.85,0.67-1.39,0.71
		c-0.54,0.04-1.08-0.15-1.48-0.51l-2.76-2.47l-1.9,2.27c-0.35,0.41-0.84,0.67-1.38,0.71L64.1,39.51z"/>
</g>
<g class="st1">
	<path class="st0" d="M24.41,54.07c-0.46,0-0.91-0.16-1.27-0.46l-4.41-3.64c-0.87-0.68-1.02-1.94-0.34-2.81
		c0.68-0.87,1.94-1.02,2.81-0.34c0.03,0.02,0.05,0.04,0.08,0.07l3,2.48l3-2.89c0.79-0.78,2.06-0.77,2.84,0.02
		c0.78,0.79,0.77,2.06-0.02,2.84l-4.24,4.16C25.47,53.88,24.95,54.09,24.41,54.07z"/>
</g>
<g class="st1">
	<path class="st0" d="M67.26,18.76c-1.1,0-2-0.9-2-2V5.97C59.81,9.2,54.37,8.35,49.35,3.43c-0.79-0.77-0.8-2.04-0.03-2.83
		s2.04-0.8,2.83-0.03C56.69,5.02,60.94,5,65.93,0.52c0.82-0.73,2.09-0.66,2.82,0.16c0.32,0.36,0.5,0.83,0.51,1.32v14.76
		C69.26,17.87,68.37,18.76,67.26,18.76z"/>
</g>
<g class="st1">
	<path class="st0" d="M110.83,72.16H61.89c-1.1,0-2-0.9-2-2s0.9-2,2-2h48.94c1.1,0,2,0.9,2,2S111.94,72.16,110.83,72.16z"/>
</g>
<g class="st1">
	<path class="st0" d="M61.89,80.67H12.94c-1.1,0-2-0.9-2-2s0.9-2,2-2h49c1.1,0,2,0.9,2,2s-0.9,2-2,2H61.89z"/>
</g>
<g class="st1">
	<path class="st0" d="M88.24,90.46H41.93c-1.1,0-2-0.9-2-2s0.9-2,2-2h46.31c1.1,0,2,0.9,2,2S89.35,90.46,88.24,90.46z"/>
</g>
</svg>
