<?xml version="1.0" encoding="utf-8"?>
<!-- Generator: Adobe Illustrator 24.0.1, SVG Export Plug-In . SVG Version: 6.00 Build 0)  -->
<svg version="1.1" id="_ÎÓÈ_1" xmlns="http://www.w3.org/2000/svg" xmlns:xlink="http://www.w3.org/1999/xlink" x="0px" y="0px"
	 viewBox="0 0 97.07 100.83" style="enable-background:new 0 0 97.07 100.83;" xml:space="preserve">
<style type="text/css">
	.st0{fill:#F7741C;}
	.st1{opacity:0.7;}
</style>
<title>icons_unbranded_RGB</title>
<path class="st0" d="M67.38,91.11H8.11c-0.97,0.02-1.82-0.67-2-1.63c-0.45-2.37-1-4.74-1.48-7.26c-3.22-15.29-6.55-31.1,3.33-40.67
	c8.44-8.15,16.63-17.61,19.72-31.22c0.21-0.93,1.05-1.58,2-1.56h59.21c1.1,0,2,0.89,2,2c0,0.28-0.06,0.56-0.17,0.81
	c-1.33,3-2.56,6-3.75,8.92c-4.65,11.39-9,22.16-18,28.31c-9.87,6.76-4.88,22.83-0.86,35.75c0.42,1.36,0.84,2.7,1.22,4
	c0.31,1.06-0.29,2.17-1.35,2.49c-0.18,0.05-0.37,0.08-0.56,0.08L67.38,91.11z M9.76,87.11h54.91l-0.42-1.36
	c-4.17-13.43-9.89-31.82,2.42-40.24c8-5.48,12-15.23,16.6-26.52c0.83-2,1.68-4.12,2.58-6.22H31.2
	C27.65,26.6,19.31,36.15,10.78,44.42c-8.29,8-5.19,22.75-2.2,37C8.98,83.28,9.39,85.21,9.76,87.11z"/>
<path class="st0" d="M27.98,51.94c-1.04,0-1.91-0.79-2-1.82c-0.34-3.26,0.68-6.52,2.83-9c5.92-7,19.06-8.07,19.62-8.11
	c1.1-0.08,2.07,0.75,2.15,1.85s-0.75,2.07-1.85,2.15l0,0c-0.12,0-12,1-16.87,6.71c-1.45,1.65-2.14,3.82-1.9,6
	c0.13,1.1-0.66,2.09-1.76,2.21c-0.02,0-0.03,0-0.05,0.01H27.98z"/>
<g class="st1">
	<path class="st0" d="M73.96,99.34c-0.59,0-1.15-0.26-1.53-0.71l-6.59-7.83c-0.71-0.85-0.6-2.11,0.25-2.82
		c0.85-0.71,2.11-0.6,2.82,0.25l6.58,7.83c0.71,0.85,0.59,2.11-0.26,2.82C74.88,99.17,74.43,99.34,73.96,99.34L73.96,99.34z"/>
</g>
<g class="st1">
	<path class="st0" d="M62.95,100.18c-0.79,0-1.5-0.47-1.82-1.19l-3.88-8.67c-0.45-1.01,0-2.2,1.01-2.65c1.01-0.45,2.2,0,2.65,1.01
		l3.87,8.68c0.45,1.01,0,2.19-1,2.64C63.52,100.12,63.24,100.18,62.95,100.18L62.95,100.18z"/>
</g>
<g class="st1">
	<path class="st0" d="M50.66,100.1c-0.77,0-1.48-0.44-1.81-1.14l-4.13-8.61c-0.48-1-0.06-2.19,0.94-2.67s2.19-0.06,2.67,0.94l0,0
		l4.13,8.61c0.48,1,0.06,2.19-0.94,2.67c0,0,0,0,0,0C51.25,100.03,50.96,100.1,50.66,100.1z"/>
</g>
<g class="st1">
	<path class="st0" d="M39.59,100.25c-0.92,0.04-1.75-0.56-2-1.45l-2.56-8.92c-0.3-1.06,0.31-2.17,1.37-2.48
		c1.06-0.3,2.17,0.31,2.48,1.38l2.55,8.91c0.31,1.06-0.3,2.17-1.36,2.48c0,0,0,0-0.01,0C39.91,100.21,39.75,100.24,39.59,100.25z"/>
</g>
<g class="st1">
	<path class="st0" d="M26.92,100.83L26.92,100.83c-1.1,0-2-0.9-2-2v-9.1c0-1.1,0.9-2,2-2l0,0c1.1,0,2,0.9,2,2v9.09
		c0.01,1.1-0.89,2-1.99,2.01C26.93,100.83,26.93,100.83,26.92,100.83z"/>
</g>
<g class="st1">
	<path class="st0" d="M13.89,100.51c-0.31,0-0.62-0.08-0.9-0.22c-0.99-0.5-1.38-1.7-0.88-2.69c0,0,0,0,0,0l4.32-8.56
		c0.47-1,1.66-1.43,2.66-0.97c1,0.47,1.43,1.66,0.97,2.66c-0.02,0.04-0.04,0.07-0.06,0.11l-4.32,8.57
		C15.34,100.08,14.65,100.51,13.89,100.51z"/>
</g>
<g class="st1">
	<path class="st0" d="M2.01,100.74c-0.35,0-0.7-0.09-1-0.26c-0.96-0.55-1.3-1.77-0.75-2.73c0,0,0,0,0,0l5.13-9
		c0.55-0.96,1.78-1.29,2.74-0.74c0.96,0.55,1.29,1.78,0.74,2.74l0,0l-5.14,9C3.38,100.36,2.72,100.74,2.01,100.74z"/>
</g>
<g class="st1">
	<path class="st0" d="M88.47,11.12c-0.57,0-1.11-0.24-1.49-0.66c-0.74-0.82-0.68-2.08,0.14-2.82c0,0,0,0,0.01-0.01l6.59-5.9
		c0.83-0.74,2.1-0.66,2.83,0.17c0.74,0.83,0.66,2.1-0.16,2.83l-6.59,5.9C89.43,10.95,88.96,11.12,88.47,11.12z"/>
</g>
<g class="st1">
	<path class="st0" d="M80.17,11.13c-1.1-0.01-1.99-0.91-1.99-2.01c0-0.35,0.09-0.69,0.27-0.99l3.88-6.54c0.45-1.01,1.64-1.45,2.65-1
		c1.01,0.45,1.45,1.64,1,2.65c-0.06,0.12-0.12,0.24-0.21,0.35l-3.88,6.54C81.54,10.74,80.88,11.12,80.17,11.13z"/>
</g>
<g class="st1">
	<path class="st0" d="M67.59,11.15c-1.1,0-2-0.9-2-2c0-0.38,0.11-0.76,0.32-1.08l4.13-6.49c0.59-0.93,1.83-1.21,2.76-0.61
		s1.21,1.83,0.61,2.76l-4.14,6.49C68.92,10.8,68.28,11.15,67.59,11.15z"/>
</g>
<g class="st1">
	<path class="st0" d="M58.08,11.26c-0.24,0-0.48-0.04-0.71-0.13c-1.03-0.39-1.55-1.55-1.16-2.58c0,0,0,0,0,0l2.55-6.72
		c0.39-1.03,1.55-1.55,2.58-1.16c1.03,0.39,1.55,1.55,1.16,2.58l-2.55,6.69C59.67,10.73,58.92,11.25,58.08,11.26z"/>
</g>
<g class="st1">
	<path class="st0" d="M48.04,10.94c-1.1,0-2-0.9-2-2V2.09c0-1.1,0.9-2,2-2l0,0c1.1,0,2,0.9,2,2v6.86c0,1.1-0.9,2-2,2V10.94z"/>
</g>
<g class="st1">
	<path class="st0" d="M39.31,10.8c-0.66,0.01-1.28-0.32-1.66-0.86l-4.33-6.46c-0.62-0.92-0.37-2.16,0.55-2.78
		c0.92-0.62,2.16-0.37,2.78,0.55l4.32,6.46c0.62,0.92,0.37,2.16-0.54,2.78c0,0,0,0-0.01,0C40.09,10.7,39.71,10.81,39.31,10.8z"/>
</g>
<g class="st1">
	<path class="st0" d="M28.25,10.94c-0.63,0-1.22-0.29-1.6-0.79l-5.14-6.82c-0.73-0.83-0.66-2.09,0.17-2.82
		c0.83-0.73,2.09-0.66,2.82,0.17c0.07,0.08,0.14,0.17,0.2,0.27l5.14,6.82c0.65,0.89,0.46,2.14-0.43,2.79
		C29.07,10.8,28.67,10.93,28.25,10.94z"/>
</g>
</svg>
