<?xml version="1.0" encoding="utf-8"?>
<!-- Generator: Adobe Illustrator 24.0.1, SVG Export Plug-In . SVG Version: 6.00 Build 0)  -->
<svg version="1.1" id="_ÎÓÈ_1" xmlns="http://www.w3.org/2000/svg" xmlns:xlink="http://www.w3.org/1999/xlink" x="0px" y="0px"
	 viewBox="0 0 101.14 125.28" style="enable-background:new 0 0 101.14 125.28;" xml:space="preserve">
<style type="text/css">
	.st0{fill:#F7741C;}
	.st1{opacity:0.66;}
	.st2{opacity:0.65;}
	.st3{opacity:0.7;}
	.st4{opacity:0.58;}
</style>
<title>icons_unbranded_RGB</title>
<path class="st0" d="M44.62,80.07c-9.06-0.04-17.01-6.08-19.48-14.8c0-0.17-0.09-0.31-0.12-0.45c-1.34-5.18-0.54-10.69,2.21-15.28
	c0.2-0.35,0.54-0.6,0.94-0.69c0.39-0.09,0.81-0.03,1.15,0.19l31.6,20c0.35,0.23,0.59,0.59,0.66,1c0.09,0.4,0.01,0.81-0.22,1.15
	c-3.29,4.88-8.54,8.08-14.39,8.77C46.19,80.04,45.4,80.07,44.62,80.07z M29.08,52.45c-1.75,3.63-2.15,7.76-1.14,11.66
	c0,0.11,0,0.2,0.08,0.29c2.29,8.2,10.2,13.52,18.66,12.54c0.75-0.08,1.5-0.22,2.23-0.41c3.57-0.91,6.75-2.95,9.08-5.8L29.08,52.45z"
	/>
<path class="st0" d="M60.11,71.82c-0.28,0-0.56-0.08-0.8-0.23L27.68,51.58c-0.66-0.43-0.87-1.31-0.48-2
	c5.57-9.68,17.93-13.02,27.61-7.45c8.57,4.93,12.32,15.32,8.87,24.58c-0.57,1.6-1.34,3.11-2.3,4.51
	C61.08,71.61,60.6,71.84,60.11,71.82z M30.61,49.82l29,18.39c0.47-0.83,0.87-1.7,1.19-2.6l0,0c1.16-3.23,1.32-6.73,0.46-10.05
	c-2.35-9.21-11.71-14.77-20.92-12.42c-3.94,1-7.39,3.37-9.75,6.68H30.61z"/>
<path class="st0" d="M13.91,121.71c-0.29,0-0.57-0.08-0.81-0.24l-12.17-7.76c-0.67-0.43-0.9-1.3-0.52-2l24.84-47.54
	c0.39-0.74,1.3-1.02,2.04-0.64c0.37,0.19,0.64,0.53,0.75,0.93c2.31,8.17,10.2,13.46,18.64,12.48c0.82-0.1,1.57,0.48,1.67,1.3
	c0.05,0.4-0.06,0.8-0.31,1.12l-32.9,41.77C14.85,121.51,14.39,121.72,13.91,121.71z M3.68,111.87l9.87,6.33l30.13-38.16
	c-7.42-0.4-14.04-4.81-17.27-11.5L3.68,111.87z"/>
<g class="st1">
	<path class="st0" d="M3.76,125.28c-0.33,0-0.66-0.1-0.94-0.28c-0.8-0.52-1.03-1.6-0.51-2.4l5.22-8.08c0.52-0.8,1.6-1.03,2.4-0.51
		c0.8,0.51,1.04,1.57,0.53,2.37c0,0.01-0.01,0.01-0.01,0.02l-5.23,8.09C4.9,124.98,4.35,125.28,3.76,125.28z"/>
</g>
<g class="st2">
	<path class="st0" d="M25.16,94.23c-0.28,0-0.56-0.09-0.8-0.24l-3.31-2.1c-0.7-0.45-0.91-1.38-0.46-2.08l5.85-9.19
		c0.22-0.33,0.55-0.57,0.94-0.66c0.39-0.09,0.8-0.01,1.14,0.2l3.3,2.11c0.34,0.21,0.58,0.55,0.66,0.94
		c0.09,0.39,0.02,0.79-0.19,1.13l-5.86,9.19C26.15,93.96,25.67,94.23,25.16,94.23z M23.93,90.16l0.77,0.49L28.94,84l-0.77-0.5
		L23.93,90.16z"/>
</g>
<path class="st0" d="M88.49,89.08c-2.9,0.04-5.8-0.22-8.65-0.8c-1.73-0.31-3.22-1.42-4-3c-1.83-3.8,0.39-9.91,2.57-14.37
	c0.83-1.68,2.49-2.78,4.36-2.88c9.76-0.54,14.21-5.7,14.3-10.57s-4-9.93-13.28-10.8c-2.67-0.23-4.71-2.48-4.69-5.16v-5.57
	c0.02-0.66-0.5-1.2-1.16-1.22c0,0,0,0,0,0H66.02c-2.87,0-5.19-2.33-5.19-5.19c0-0.62,0.11-1.23,0.33-1.81l9.76-26.4
	c0.39-1.04,1.54-1.57,2.58-1.18c1.04,0.39,1.57,1.54,1.18,2.58l-9.76,26.41c-0.14,0.36-0.08,0.77,0.14,1.09
	c0.23,0.33,0.6,0.52,1,0.51h11.92c2.86,0,5.18,2.32,5.19,5.18v5.52c0,0.61,0.46,1.12,1.06,1.18c8.26,0.77,17.08,5.74,16.91,14.85
	c-0.17,9.28-9.49,14-18.08,14.49c-0.42,0.03-0.8,0.27-1,0.65c-2.42,5-3.4,9.12-2.56,10.88c0.24,0.49,0.71,0.82,1.25,0.88
	c7,1.57,18,0,18.1,0c1.1-0.09,2.07,0.72,2.16,1.83c0.08,1.01-0.59,1.92-1.58,2.12C95.8,88.8,92.15,89.06,88.49,89.08z"/>
<g class="st3">
	<path class="st0" d="M91.68,20.65c-0.3,0.01-0.59-0.06-0.86-0.19c-1-0.48-1.42-1.67-0.94-2.67c0,0,0,0,0,0l2.6-5.44H80.42
		c-1.1,0-2-0.9-2-2s0.9-2,2-2h15.26c0.69,0,1.32,0.35,1.69,0.93c0.37,0.58,0.41,1.31,0.12,1.93l-4,8.31
		C93.15,20.21,92.45,20.65,91.68,20.65z"/>
</g>
<g class="st3">
	<path class="st0" d="M36.49,32.53c-0.79-0.01-1.5-0.48-1.81-1.21l-5.91-13.61c-0.43-1.02,0.06-2.19,1.08-2.62
		c1-0.42,2.15,0.04,2.59,1.03l5.89,13.59c0.44,1,0,2.18-1,2.63C37.06,32.46,36.78,32.52,36.49,32.53z"/>
</g>
<g class="st3">
	<path class="st0" d="M20.35,43.1c-0.25,0-0.5-0.05-0.74-0.14L2.97,36.33c-1.03-0.41-1.53-1.57-1.12-2.6
		c0.41-1.03,1.57-1.53,2.6-1.12l16.64,6.63c1.03,0.41,1.53,1.57,1.12,2.6C21.91,42.6,21.17,43.1,20.35,43.1z"/>
</g>
<g class="st3">
	<path class="st0" d="M2.03,70.54c-1.1,0.02-2.01-0.87-2.03-1.97c-0.01-0.89,0.56-1.67,1.41-1.94l16.05-5.17
		c1.03-0.41,2.19,0.09,2.6,1.12c0.41,1.03-0.09,2.19-1.12,2.6c-0.08,0.03-0.17,0.06-0.25,0.08l-16,5.18
		C2.47,70.51,2.25,70.54,2.03,70.54z"/>
</g>
<g class="st4">
	<path class="st0" d="M52.88,114.64c-2.83,0-5.13-2.3-5.13-5.13c0-2.83,2.3-5.13,5.13-5.13s5.13,2.3,5.13,5.13
		S55.71,114.64,52.88,114.64L52.88,114.64z M52.88,108.38c-0.62,0-1.13,0.51-1.13,1.13c0,0.62,0.51,1.13,1.13,1.13
		c0.62,0,1.13-0.51,1.13-1.13S53.5,108.38,52.88,108.38L52.88,108.38z"/>
</g>
<g class="st4">
	<path class="st0" d="M56.01,111.51h-0.16c-1.1-0.09-1.93-1.05-1.84-2.15c0,0,0,0,0,0l1.53-19.65c0.05-0.72,0.49-1.35,1.14-1.66
		c0.65-0.3,1.41-0.23,2,0.18c0.71,0.51,7,5.12,7.55,10.6c0.11,1.1-0.7,2.09-1.81,2.2c-1.1,0.11-2.09-0.7-2.19-1.81
		c-0.17-1.78-1.59-3.7-3-5.22L58,109.71C57.89,110.73,57.03,111.51,56.01,111.51z"/>
</g>
</svg>
