<?xml version="1.0" encoding="utf-8"?>
<!-- Generator: Adobe Illustrator 24.0.1, SVG Export Plug-In . SVG Version: 6.00 Build 0)  -->
<svg version="1.1" id="_ÎÓÈ_1" xmlns="http://www.w3.org/2000/svg" xmlns:xlink="http://www.w3.org/1999/xlink" x="0px" y="0px"
	 viewBox="0 0 115.74 90.81" style="enable-background:new 0 0 115.74 90.81;" xml:space="preserve">
<style type="text/css">
	.st0{fill:#F7741C;}
	.st1{opacity:0.65;}
	.st2{opacity:0.64;}
</style>
<title>icons_unbranded_RGB</title>
<g id="icon">
	<path class="st0" d="M82.91,42.82c-3.13,0-5.67-2.54-5.67-5.67c0-3.13,2.54-5.67,5.67-5.67c3.13,0,5.67,2.54,5.67,5.67
		S86.05,42.82,82.91,42.82C82.91,42.82,82.91,42.82,82.91,42.82z M82.91,35.48c-0.92,0-1.67,0.75-1.67,1.67
		c0,0.92,0.75,1.67,1.67,1.67c0.92,0,1.67-0.75,1.67-1.67l0,0C84.58,36.23,83.84,35.48,82.91,35.48z"/>
	<path class="st0" d="M82.91,61.63c-3.13,0-5.67-2.54-5.67-5.67c0-3.13,2.54-5.67,5.67-5.67c3.13,0,5.67,2.54,5.67,5.67
		C88.58,59.09,86.04,61.62,82.91,61.63z M82.91,54.29c-0.92,0-1.67,0.75-1.67,1.67c0,0.92,0.75,1.67,1.67,1.67
		c0.92,0,1.67-0.75,1.67-1.67l0,0C84.58,55.04,83.84,54.29,82.91,54.29z"/>
	<path class="st0" d="M72.49,52.51c-3.13,0-5.67-2.54-5.67-5.67c0-3.13,2.54-5.67,5.67-5.67c3.13,0,5.67,2.54,5.67,5.67l0,0
		C78.16,49.97,75.63,52.51,72.49,52.51z M72.49,45.17c-0.92,0-1.67,0.75-1.67,1.67c0,0.92,0.75,1.67,1.67,1.67
		c0.92,0,1.67-0.75,1.67-1.67l0,0C74.16,45.92,73.42,45.17,72.49,45.17z"/>
	<path class="st0" d="M92.96,52.51c-3.13,0-5.67-2.54-5.67-5.67s2.54-5.67,5.67-5.67c3.13,0,5.67,2.54,5.67,5.67l0,0
		C98.63,49.97,96.1,52.51,92.96,52.51z M92.96,45.17c-0.92,0-1.67,0.75-1.67,1.67s0.75,1.67,1.67,1.67c0.92,0,1.67-0.75,1.67-1.67
		l0,0C94.63,45.92,93.89,45.17,92.96,45.17z"/>
	<path class="st0" d="M101.21,90.81h-0.19c-4.23-0.18-8.1-2.46-10.29-6.09c-2.4-3.92-5.3-7.52-8.62-10.7
		c-4.09-3.7-9.42-5.72-14.94-5.66H48.68c-5.54-0.08-10.89,1.95-15,5.66c-3.32,3.18-6.22,6.78-8.62,10.7
		c-2.19,3.63-6.06,5.92-10.29,6.09c-3.48,0-6.81-1.4-9.25-3.88c-3.08-3.04-4.98-7.06-5.36-11.37c-1.24-12.28,4.75-28.53,10-40
		c5.12-11.32,16.59-18.41,29-17.92h0.81c0.7,0.06,1.32,0.47,1.63,1.1c5.45,10.91,15.75,10.7,16.19,10.69c0.05-0.01,0.11-0.01,0.16,0
		c0.41,0,10.72,0.23,16.18-10.69c0.31-0.63,0.93-1.04,1.63-1.1h0.81c12.41-0.48,23.88,6.61,29,17.92l0,0
		c5.25,11.47,11.24,27.72,10,40c-0.36,4.3-2.23,8.33-5.28,11.37C107.9,89.37,104.63,90.76,101.21,90.81z M67.21,64.36
		c6.52-0.06,12.83,2.34,17.66,6.72c3.58,3.42,6.71,7.3,9.3,11.52c1.46,2.48,4.07,4.06,6.95,4.21c2.43,0,4.76-1,6.43-2.77
		c2.39-2.38,3.86-5.53,4.14-8.89c1.22-12-5.52-28.9-9.65-37.92c-4.38-9.71-14.14-15.85-24.79-15.6c-5.4,10.65-18.42,14.91-29.08,9.5
		c-4.1-2.08-7.43-5.41-9.5-9.5c-10.65-0.25-20.41,5.89-24.79,15.6c-4.12,9-10.87,25.93-9.65,37.92c0.26,3.35,1.7,6.5,4.06,8.89
		c1.67,1.77,4,2.77,6.43,2.77c2.89-0.13,5.52-1.72,7-4.21c2.59-4.22,5.72-8.1,9.3-11.52c4.83-4.38,11.14-6.78,17.66-6.72h18.49
		H67.21z"/>
	<g class="st1">
		<path class="st0" d="M32.53,61.52c-8.39-0.1-15.11-6.98-15.01-15.37c0.1-8.39,6.98-15.11,15.37-15.01
			c8.33,0.1,15.03,6.89,15.01,15.22C47.83,54.78,40.96,61.56,32.53,61.52z M32.53,35.14c-6.18,0.1-11.11,5.19-11.01,11.37
			s5.19,11.11,11.37,11.01c6.1-0.1,10.99-5.06,11.01-11.16c-0.04-6.24-5.12-11.26-11.36-11.22C32.54,35.14,32.54,35.14,32.53,35.14z
			"/>
	</g>
	<g class="st1">
		<path class="st0" d="M32.53,53.76c-1.1,0-2-0.9-2-2V40.9c0-1.1,0.9-2,2-2c1.1,0,2,0.9,2,2v10.86
			C34.53,52.86,33.64,53.76,32.53,53.76z"/>
	</g>
	<g class="st1">
		<path class="st0" d="M38.07,48.36H27c-1.1,0-2-0.9-2-2s0.9-2,2-2h11.07c1.1,0,2,0.9,2,2S39.18,48.36,38.07,48.36z"/>
	</g>
	<g class="st2">
		<path class="st0" d="M57.92,18.36c-1.1,0-2-0.9-2-2V2c0-1.1,0.9-2,2-2s2,0.9,2,2v14.36C59.92,17.46,59.03,18.36,57.92,18.36z"/>
	</g>
	<g class="st2">
		<path class="st0" d="M52.22,24c-1.1,0-2-0.9-2-2v-1.58c0-2.76,2.24-5,5-5h5.45c2.76,0,5,2.24,5,5v1.17c0,1.1-0.9,2-2,2
			c-1.1,0-2-0.9-2-2v-1.17c0-0.55-0.45-1-1-1H55.2c-0.55,0-1,0.45-1,1V22C54.2,23.1,53.32,23.99,52.22,24z"/>
	</g>
	<path class="st0" d="M57.92,43.93c-1.17-0.01-2.12-0.96-2.11-2.13s0.96-2.12,2.13-2.11c1.17,0.01,2.11,0.95,2.11,2.12
		c0,1.17-0.95,2.12-2.12,2.12C57.93,43.93,57.93,43.93,57.92,43.93z M57.92,39.93c-1.04,0-1.88,0.84-1.88,1.88s0.84,1.88,1.88,1.88
		c1.04,0,1.88-0.84,1.88-1.88c0,0,0,0,0,0C59.8,40.77,58.96,39.93,57.92,39.93z"/>
</g>
</svg>
