<?xml version="1.0" encoding="utf-8"?>
<!-- Generator: Adobe Illustrator 24.0.1, SVG Export Plug-In . SVG Version: 6.00 Build 0)  -->
<svg version="1.1" id="_ÎÓÈ_1" xmlns="http://www.w3.org/2000/svg" xmlns:xlink="http://www.w3.org/1999/xlink" x="0px" y="0px"
	 viewBox="0 0 125.32 158.24" style="enable-background:new 0 0 125.32 158.24;" xml:space="preserve">
<style type="text/css">
	.st0{opacity:0.7;}
	.st1{fill:#F7741C;}
</style>
<title>icons_unbranded_RGB</title>
<g class="st0">
	<path class="st1" d="M90.46,46.87c-6.72,0-12.17-5.45-12.17-12.17c0-6.72,5.45-12.17,12.17-12.17c6.72,0,12.17,5.45,12.17,12.17v0
		C102.62,41.42,97.18,46.86,90.46,46.87z M90.46,26.54c-4.51,0-8.17,3.66-8.17,8.17c0,4.51,3.66,8.17,8.17,8.17
		c4.51,0,8.17-3.66,8.17-8.17c0,0,0-0.01,0-0.01C98.62,30.19,94.97,26.54,90.46,26.54z"/>
</g>
<g class="st0">
	<path class="st1" d="M90.46,19.95c-1.1,0-2-0.9-2-2V2c0-1.1,0.9-2,2-2s2,0.9,2,2v16C92.43,19.08,91.55,19.95,90.46,19.95z"/>
</g>
<g class="st0">
	<path class="st1" d="M94.89,70.66c-1.1,0-2-0.9-2-2v-18c0-1.1,0.9-2,2-2s2,0.9,2,2v18C96.89,69.76,96,70.66,94.89,70.66z"/>
</g>
<g class="st0">
	<path class="st1" d="M73.55,37.41h-16c-1.1,0-2-0.9-2-2s0.9-2,2-2h16c1.1,0,2,0.9,2,2S74.66,37.41,73.55,37.41z"/>
</g>
<g class="st0">
	<path class="st1" d="M123.32,37.41h-16c-1.1,0-2-0.9-2-2s0.9-2,2-2h16c1.1,0,2,0.9,2,2S124.43,37.41,123.32,37.41z"/>
</g>
<g class="st0">
	<path class="st1" d="M78.76,24.65c-0.54,0-1.06-0.23-1.44-0.62l-11-11.51c-0.87-0.68-1.03-1.94-0.35-2.81
		c0.68-0.87,1.94-1.03,2.81-0.35c0.15,0.12,0.28,0.25,0.39,0.4l11,11.51c0.77,0.79,0.75,2.06-0.05,2.83
		c-0.38,0.36-0.88,0.57-1.4,0.56L78.76,24.65z"/>
</g>
<g class="st0">
	<path class="st1" d="M113.2,60.58c-0.54,0-1.06-0.23-1.44-0.62l-11-11.51c-0.76-0.8-0.74-2.07,0.06-2.83
		c0.8-0.76,2.07-0.74,2.83,0.06l11,11.51c0.77,0.79,0.75,2.06-0.05,2.83C114.23,60.38,113.72,60.58,113.2,60.58z"/>
</g>
<g class="st0">
	<path class="st1" d="M68.43,58.77c-1.1,0-2-0.89-2-2c0-0.54,0.22-1.06,0.61-1.44L77.4,45.4c0.8-0.76,2.07-0.74,2.83,0.06
		c0.76,0.8,0.74,2.07-0.06,2.83L69.83,58.2C69.46,58.57,68.95,58.77,68.43,58.77z"/>
</g>
<g class="st0">
	<path class="st1" d="M103.06,25.56c-1.1,0.01-2.01-0.88-2.01-1.99c0-0.55,0.22-1.08,0.62-1.46l11.52-11
		c0.76-0.8,2.03-0.83,2.83-0.07s0.83,2.03,0.07,2.83c-0.04,0.04-0.08,0.09-0.13,0.13l-11.52,11
		C104.07,25.35,103.58,25.56,103.06,25.56z"/>
</g>
<g class="st0">
	<path class="st1" d="M47.42,158.24c-1.1,0-2-0.9-2-2V73.87c0-1.1,0.9-2,2-2s2,0.9,2,2v82.37
		C49.42,157.34,48.53,158.24,47.42,158.24z"/>
</g>
<g class="st0">
	<path class="st1" d="M47.9,94.42c-1.1,0.01-2.01-0.88-2.01-1.99c0-0.52,0.2-1.03,0.56-1.4l13.23-13.8c0.76-0.8,2.03-0.82,2.83-0.06
		c0.8,0.76,0.82,2.03,0.06,2.83L49.34,93.77C48.97,94.18,48.45,94.41,47.9,94.42z"/>
</g>
<g class="st0">
	<path class="st1" d="M47.42,113.77c-0.52,0-1.02-0.2-1.39-0.56l-18.79-18c-0.8-0.76-0.82-2.03-0.06-2.83
		c0.76-0.8,2.03-0.82,2.83-0.06l0,0l18.79,18c0.8,0.76,0.83,2.03,0.07,2.83C48.49,113.55,47.97,113.77,47.42,113.77z"/>
</g>
<g class="st0">
	<path class="st1" d="M47.42,121.39c-1.1,0.03-2.02-0.84-2.05-1.95c-0.02-0.75,0.39-1.45,1.05-1.81L60.68,110
		c0.94-0.59,2.17-0.3,2.76,0.63c0.59,0.94,0.3,2.17-0.63,2.76c-0.08,0.05-0.16,0.09-0.24,0.13l-14.25,7.64
		C48.04,121.3,47.73,121.38,47.42,121.39z"/>
</g>
<path class="st1" d="M68.65,128.25c-0.81,0-1.62-0.05-2.43-0.14c-2.6-0.31-5.11-1.14-7.39-2.43c-0.96-0.55-1.29-1.78-0.74-2.74
	c0.55-0.96,1.78-1.29,2.74-0.74c1.82,1.03,3.82,1.69,5.9,1.93c8.78,0.97,16.69-5.36,17.66-14.14c0.67-6.08-2.18-12-7.34-15.28
	c-0.94-0.58-1.24-1.81-0.66-2.75c0.09-0.15,0.2-0.29,0.33-0.41c4.97-4.71,5.18-12.55,0.47-17.52c-1.98-2.09-4.62-3.42-7.47-3.77
	c-0.5-0.06-1-0.09-1.5-0.08c-0.66,0.02-1.29-0.29-1.66-0.84c-0.38-0.53-0.48-1.22-0.26-1.84c0.38-1.03,0.63-2.11,0.75-3.2
	c1.01-8.28-4.89-15.81-13.17-16.81c-0.02,0-0.04,0-0.05-0.01c-6.22-0.74-12.25,2.4-15.2,7.93c-0.51,0.97-1.71,1.35-2.69,0.84
	c-0.89-0.46-1.85-0.75-2.84-0.86c-4.75-0.58-9.08,2.8-9.66,7.55c-0.35,2.87,0.75,5.72,2.93,7.61c0.83,0.73,0.92,1.99,0.2,2.82
	c-0.46,0.53-1.16,0.78-1.85,0.66l-0.62-0.08c-9.86-0.9-18.57,6.36-19.47,16.22c-0.86,9.46,5.81,17.95,15.2,19.35
	c1.06,0.13,1.83,1.06,1.76,2.12c-0.4,5.92,3.9,11.13,9.79,11.84c1.22,0.15,2.46,0.09,3.67-0.17c1.08-0.23,2.15,0.45,2.38,1.53
	c0.23,1.08-0.45,2.15-1.53,2.38c-8.17,1.76-16.23-3.43-17.99-11.61c-0.17-0.79-0.28-1.59-0.32-2.39
	C5.72,110.83-1.96,99.27,0.44,87.4c1.98-9.83,10.38-17.06,20.39-17.56c-3.23-6.21-0.81-13.86,5.4-17.08
	c2.26-1.17,4.82-1.64,7.35-1.34c0.83,0.1,1.65,0.28,2.45,0.54c4.01-6.03,11.07-9.3,18.27-8.46c10.47,1.28,17.93,10.8,16.66,21.27
	c-0.06,0.54-0.15,1.07-0.25,1.59c8.95,1.41,15.05,9.81,13.64,18.76c-0.43,2.75-1.56,5.35-3.28,7.54c8.6,6.93,9.97,19.52,3.04,28.12
	C80.34,125.46,74.66,128.2,68.65,128.25L68.65,128.25z"/>
</svg>
